<svg xmlns="http://www.w3.org/2000/svg" viewBox="0 0 422.5 86.4">
  <defs>
    <style>
      .a{fill:#333333}
    </style>
  </defs>
  <path class="a" d="M6 39.9a48 48 0 000 6.7q.2 9 4.5 13a15.2 15.2 0 0010.8 4 16 16 0 008.6-2.2q3.5-2.2 5.5-7.6a6 6 0 01.9-1.6 1.9 1.9 0 011.4-.4h1.4a2.3 2.3 0 011.5.5 1.7 1.7 0 01.6 1.6 14.2 14.2 0 01-1.3 5.3 15.1 15.1 0 01-3.6 4.9 18.5 18.5 0 01-6.2 3.6 24.9 24.9 0 01-8.8 1.4q-10.2 0-15.5-5.8T0 47a56.7 56.7 0 010-7.7Q.4 29 5.8 23.2t15.5-5.9a25 25 0 018.8 1.4 18.7 18.7 0 016.2 3.6 15.3 15.3 0 013.6 5 14 14 0 011.3 5.3 1.6 1.6 0 01-.5 1.5 2.3 2.3 0 01-1.6.5h-1.4a1.9 1.9 0 01-1.4-.4 6 6 0 01-.9-1.6q-2-5.4-5.5-7.6a16 16 0 00-8.6-2.2 15.2 15.2 0 00-10.8 4q-4.2 4-4.5 13zM84.5 68.2a1.9 1.9 0 01-2.1-2.1v-4.5a15.3 15.3 0 01-2.3 2.6 14.7 14.7 0 01-3.4 2.4 22.6 22.6 0 01-4.8 1.8 26.3 26.3 0 01-6.5.7 19.8 19.8 0 01-6.6-1 18.2 18.2 0 01-5.5-3 14.7 14.7 0 01-3.7-4.5 11.8 11.8 0 01-1.4-5.7 12.2 12.2 0 011.4-5.9 14.4 14.4 0 013.9-4.5 22.2 22.2 0 016-3.3 36.3 36.3 0 017.7-1.9l15.2-2v-3.5q0-5.2-3.1-8t-10-3Q64 22.8 61 25a9 9 0 00-3.7 4.5 3.4 3.4 0 01-.9 1.6 2.1 2.1 0 01-1.4.4h-1.3a2.1 2.1 0 01-2.2-2.1 8.3 8.3 0 011-3.4 12.8 12.8 0 013.2-4 19.4 19.4 0 015.5-3.2 21.5 21.5 0 018.1-1.4 24.5 24.5 0 019.4 1.5 15.2 15.2 0 015.8 4 14 14 0 012.9 5.5 22.2 22.2 0 01.8 5.8v32a1.9 1.9 0 01-2.1 2zm-18.2-4.6a17.3 17.3 0 006.2-1.1 14.3 14.3 0 005.2-3.4 15.3 15.3 0 003.4-5.5 22.7 22.7 0 001.3-7.9v-3.3L70 44.2q-16 2.2-16 10.1a7.4 7.4 0 001.2 4.2 9.5 9.5 0 002.8 2.8 12 12 0 004 1.8 18.6 18.6 0 004.3.5zM141.2 66a1.9 1.9 0 01-2.2 2.2h-1.6a1.9 1.9 0 01-2.1-2.1V39.3q0-7.7-3.8-12t-10.9-4.5q-7 0-11 4.4t-4.1 12v26.9a1.9 1.9 0 01-2.1 2h-1.7a1.9 1.9 0 01-2.1-2V20.3a1.9 1.9 0 012-2h1.7a1.9 1.9 0 012.1 2V25a21.4 21.4 0 016.3-5.5c2.4-1.4 5.7-2.1 9.8-2.1a21 21 0 018.6 1.6 17 17 0 016 4.5 19.3 19.3 0 013.8 6.8 28.3 28.3 0 011.2 8.6zM165.9 67.5a4.7 4.7 0 01-1.3-1.7l-17.7-44.6a3.4 3.4 0 01-.2-1 2 2 0 012-2h2a1.9 1.9 0 011.4.6 4.6 4.6 0 01.7.9L169 61.2l16.2-41.5a4.5 4.5 0 01.7-1 1.9 1.9 0 011.4-.5h2a2 2 0 012 2 3.4 3.4 0 01-.2 1l-17.7 44.6a4.7 4.7 0 01-1.3 1.7 3.6 3.6 0 01-2.3.7h-1.6a3.6 3.6 0 01-2.3-.7zM231.3 68.2a1.9 1.9 0 01-2.1-2.1v-4.5a15.3 15.3 0 01-2.3 2.6 14.7 14.7 0 01-3.4 2.4 22.6 22.6 0 01-4.8 1.8 26.3 26.3 0 01-6.5.7 19.6 19.6 0 01-6.5-1 18.2 18.2 0 01-5.5-3 14.7 14.7 0 01-3.8-4.5 11.8 11.8 0 01-1.4-5.7 12.2 12.2 0 011.4-5.9 14.3 14.3 0 014-4.5 22 22 0 016-3.3 36.3 36.3 0 017.7-1.9l15.1-2v-3.5q0-5.2-3-8t-10-3c-3.6 0-6.4.7-8.3 2.1a9 9 0 00-3.7 4.5 3.3 3.3 0 01-1 1.6 2.1 2.1 0 01-1.3.4h-1.4a2 2 0 01-1.5-.6 2 2 0 01-.6-1.5 8.3 8.3 0 011-3.4 12.7 12.7 0 013.1-4 19.5 19.5 0 015.5-3.2 21.5 21.5 0 018.2-1.4 24.4 24.4 0 019.4 1.5 15.2 15.2 0 015.8 4 14 14 0 013 5.5 22.2 22.2 0 01.7 5.8v32a1.9 1.9 0 01-2.2 2zm-18.1-4.6a17.4 17.4 0 006.2-1.1 14.4 14.4 0 005-3.4 15.3 15.3 0 003.5-5.5 22.7 22.7 0 001.3-7.9v-3.3l-12.4 1.8q-16 2.2-16 10.1a7.4 7.4 0 001.2 4.2 9.5 9.5 0 002.8 2.8 12 12 0 004 1.8 18.5 18.5 0 004.4.5zM273.6 54.8a6.3 6.3 0 00-.9-3.3 7.4 7.4 0 00-2.6-2.4 22 22 0 00-5-2l-7.7-2a35.5 35.5 0 01-7.5-2.5 14.6 14.6 0 01-4.5-3.2 9.4 9.4 0 01-2.2-3.8 16 16 0 01-.6-4.4 12.9 12.9 0 014.3-9.4 17.1 17.1 0 015.4-3.2 20.8 20.8 0 017.5-1.3 22.9 22.9 0 018 1.3 19 19 0 015.4 3 12.8 12.8 0 013.2 3.5 7.7 7.7 0 011 2.8 1.7 1.7 0 01-.5 1.5 2.3 2.3 0 01-1.5.6h-1.5a2.4 2.4 0 01-2.1-1.2 28 28 0 00-1.6-2.2 8.6 8.6 0 00-2.2-2 11.6 11.6 0 00-3.3-1.2 20.9 20.9 0 00-4.9-.5c-3.8 0-6.7.8-8.6 2.4a7.5 7.5 0 00-2.7 6 6.8 6.8 0 00.5 2.8 6 6 0 002.2 2.4 19.3 19.3 0 004.5 2 75 75 0 007.5 2 44.9 44.9 0 017.7 2.5 17.7 17.7 0 015 3 10.1 10.1 0 012.7 4 14 14 0 01.8 4.9 12.5 12.5 0 01-1.2 5.4 13.4 13.4 0 01-3.7 4.6 18.2 18.2 0 01-6 3.1 26.8 26.8 0 01-8.2 1.2 24.6 24.6 0 01-8.6-1.4 22 22 0 01-5.9-3.2 13.9 13.9 0 01-3.4-3.7 7.9 7.9 0 01-1.2-2.8 1.6 1.6 0 01.7-1.6 2.5 2.5 0 011.4-.5h1.4a2.4 2.4 0 011 .2 3.4 3.4 0 011.1 1 17.9 17.9 0 002 2.4 12 12 0 002.8 2 15.3 15.3 0 003.7 1.4 20.3 20.3 0 005 .5 18.4 18.4 0 009.5-2.2 7.1 7.1 0 003.8-6.5zM295.3 30.5a13.2 13.2 0 011.8-4.3 16.4 16.4 0 014-4.3 21.4 21.4 0 016.2-3.3 25.8 25.8 0 018.6-1.3 28 28 0 018.8 1.3 19.2 19.2 0 016.8 3.8 16.6 16.6 0 014.3 6.3 23 23 0 011.6 8.7v28.2a2.6 2.6 0 01-2.6 2.6h-7.3a2.5 2.5 0 01-1.9-.8 2.5 2.5 0 01-.7-1.8v-3.2a16 16 0 01-5.8 4.8 20.9 20.9 0 01-9.7 2A23.2 23.2 0 01302 68a15.3 15.3 0 01-5.4-3.2 13.9 13.9 0 01-3.5-4.7 14.8 14.8 0 01-1.2-6 12.6 12.6 0 014.8-10.4q4.7-3.8 12.5-5.1L325 36c0-2.6-.9-4.5-2.6-5.6a11.8 11.8 0 00-6.4-1.6 8.5 8.5 0 00-3.8.7 10.8 10.8 0 00-2.6 1.8 6 6 0 01-1.5 1 4.3 4.3 0 01-1.6.3h-9a2.4 2.4 0 01-1.6-.5 1.5 1.5 0 01-.5-1.6zm16 27.1a17 17 0 005.8-.9 13 13 0 004.3-2.5 10.3 10.3 0 002.6-3.4 9.6 9.6 0 00.8-4v-1l-13 2.4a13.4 13.4 0 00-5.7 2 4.2 4.2 0 00-1.7 3.5 3.1 3.1 0 002 3 11.4 11.4 0 005 1zM377.1 69.1a22.7 22.7 0 01-5.3-.5 21.4 21.4 0 01-4.1-1.5 15.4 15.4 0 01-3-1.9 16.4 16.4 0 01-2-1.8v20.4a2.6 2.6 0 01-2.6 2.6h-7.3a2.6 2.6 0 01-2.6-2.6v-63a2.6 2.6 0 012.6-2.6h7.3a2.6 2.6 0 012.6 2.6v2.3a17.3 17.3 0 012-1.9 15.4 15.4 0 013-1.9 20.1 20.1 0 014-1.4 22.1 22.1 0 015.4-.6 20 20 0 018.7 1.9 20.6 20.6 0 016.6 5 23.7 23.7 0 014.4 7.2 26.4 26.4 0 011.7 8.5l.1 3.3v3.4a26.5 26.5 0 01-1.9 8.5 23.7 23.7 0 01-4.3 7.2 20.6 20.6 0 01-6.6 5 19.8 19.8 0 01-8.7 1.8zm9-23.2a25.5 25.5 0 000-5.4q-.6-6.2-3.9-9a12 12 0 00-8-2.7 11.7 11.7 0 00-8 2.8 11.5 11.5 0 00-3.6 8 28.2 28.2 0 00-.2 3.6 28.2 28.2 0 00.2 3.7 11.6 11.6 0 003.7 7.8 11.5 11.5 0 008 3 12 12 0 008-2.8q3.2-2.8 3.8-9zM420 0a2.6 2.6 0 012.5 2.6V10a2.6 2.6 0 01-2.6 2.6h-8.2A2.6 2.6 0 01409 10V2.6a2.6 2.6 0 012.6-2.6zm2 65.6a2.6 2.6 0 01-2.5 2.6h-7.3a2.6 2.6 0 01-2.6-2.6V20.8a2.5 2.5 0 01.7-1.8 2.5 2.5 0 011.9-.8h7.3a2.5 2.5 0 011.8.8 2.5 2.5 0 01.8 1.8z"/>
</svg>
