<svg id="5a14c033-2e4c-4cbe-861d-fc26aef88f5e" data-name="Layer 1" xmlns="http://www.w3.org/2000/svg" width="1.67744in" height="1.63602in" viewBox="0 0 120.7754 117.79343">
  <title>sdfsdfsdfgdfgdfArtboard 2</title>
  <g>
    <path d="M60.3877,0A60.39419,60.39419,0,0,0,41.2969,117.6895c3.0176.5586,4.126-1.3105,4.126-2.9053,0-1.4394-.0557-6.1972-.082-11.2431-16.7998,3.6533-20.3448-7.125-20.3448-7.125-2.747-6.9795-6.705-8.836-6.705-8.836-5.4795-3.748.413-3.6709.413-3.6709,6.0635.4258,9.2569,6.2237,9.2569,6.2237,5.3857,9.2314,14.1269,6.5625,17.5732,5.0195.542-3.9024,2.1065-6.5674,3.834-8.0752-13.4131-1.5264-27.5137-6.7051-27.5137-29.8438a23.36993,23.36993,0,0,1,6.2227-16.2089c-.627-1.5215-2.6943-7.6631.585-15.9815,0,0,5.0712-1.6221,16.6103,6.1909a57.26241,57.26241,0,0,1,30.2432,0c11.5263-7.813,16.5898-6.1909,16.5898-6.1909,3.2871,8.3184,1.2197,14.46.5928,15.9815a23.32442,23.32442,0,0,1,6.2148,16.2089c0,23.1944-14.1269,28.3008-27.5742,29.7959,2.166,1.8741,4.0957,5.5489,4.0957,11.1827,0,8.08-.0693,14.583-.0693,16.5722,0,1.6074,1.0869,3.4903,4.1474,2.8975A60.39629,60.39629,0,0,0,60.3877,0Z" style="fill: #181616;fill-rule: evenodd"/>
    <path d="M22.8721,86.7032c-.1328.3008-.6055.3906-1.0351.1845-.4385-.1972-.6836-.6064-.542-.9072.12981-.3086.6025-.3945,1.04-.1885.4385.1973.6885.6104.5371.9112Zm-.7432-.5508" style="fill: #181616"/>
    <path d="M25.3184,89.4317c-.2881.2666-.85159.1426-1.2334-.2793a.92274.92274,0,0,1-.1768-1.2549c.2969-.2666.8428-.1416,1.2383.2793.3955.4258.4727.9844.1719,1.2549Zm-.5762-.6182" style="fill: #181616"/>
    <path d="M27.6993,92.9092c-.3702.2578-.9756.0166-1.3496-.5205-.3702-.5371-.3702-1.1816.0087-1.4394.3741-.2578.9707-.0254,1.3497.5068.3691.5459.3691,1.1904-.0088,1.4531Zm0,0" style="fill: #181616"/>
    <path d="M30.961,96.2696c-.3311.3652-1.03619.2666-1.5518-.2315a1.1616,1.1616,0,0,1-.3437-1.5429c.3359-.3653,1.0449-.2627,1.5644.2314.5244.4863.6836,1.1816.3311,1.543Zm0,0" style="fill: #181616"/>
    <path d="M35.461,98.2207c-.1465.4727-.82519.6875-1.5088.4864-.6836-.2071-1.1299-.7608-.9922-1.2383.1416-.4766.8242-.7002,1.5127-.4854.6826.2061,1.1299.7559.9883,1.2373Zm0,0" style="fill: #181616"/>
    <path d="M40.4034,98.5821c.0166.498-.5635.9111-1.2813.9199-.7217.0166-1.3066-.3867-1.3144-.877,0-.5029.5673-.9111,1.289-.9238.7178-.0137,1.3067.3867,1.3067.8809Zm0,0" style="fill: #181616"/>
    <path d="M45.002,97.7998c.0859.4854-.4131.9844-1.126,1.1172-.70119.1289-1.3496-.1718-1.4394-.6533-.0869-.498.4209-.9971,1.1211-1.126.7138-.124,1.3535.168,1.4443.6621Zm0,0" style="fill: #181616"/>
  </g>
</svg>
