<svg data-name="Layer 1" xmlns="http://www.w3.org/2000/svg" width="161.034" height="157.058" viewBox="0 0 120.775 117.793"><g fill="#181616"><path d="M60.388 0a60.394 60.394 0 0 0-19.091 117.69c3.018.558 4.126-1.311 4.126-2.906 0-1.44-.056-6.197-.082-11.243-16.8 3.653-20.345-7.125-20.345-7.125-2.747-6.98-6.705-8.836-6.705-8.836-5.48-3.748.413-3.67.413-3.67 6.064.425 9.257 6.223 9.257 6.223 5.386 9.231 14.127 6.562 17.573 5.02.542-3.903 2.107-6.568 3.834-8.076-13.413-1.526-27.514-6.705-27.514-29.844a23.37 23.37 0 0 1 6.223-16.209c-.627-1.521-2.694-7.663.585-15.981 0 0 5.071-1.622 16.61 6.19a57.262 57.262 0 0 1 30.244 0c11.526-7.812 16.59-6.19 16.59-6.19 3.287 8.318 1.22 14.46.592 15.981a23.324 23.324 0 0 1 6.215 16.21c0 23.194-14.127 28.3-27.574 29.795 2.166 1.874 4.096 5.55 4.096 11.183 0 8.08-.07 14.583-.07 16.572 0 1.608 1.087 3.49 4.148 2.898A60.396 60.396 0 0 0 60.388 0z" fill-rule="evenodd"/><path d="M22.872 86.703c-.133.301-.605.39-1.035.185-.439-.198-.684-.607-.542-.908.13-.308.602-.394 1.04-.188.438.197.688.61.537.911zm-.743-.55M25.318 89.432c-.288.266-.851.142-1.233-.28a.923.923 0 0 1-.177-1.255c.297-.266.843-.141 1.238.28.396.426.473.984.172 1.255zm-.576-.618M27.7 92.91c-.37.257-.976.016-1.35-.521-.37-.537-.37-1.182.008-1.44.375-.258.971-.025 1.35.507.37.546.37 1.19-.009 1.453zm0 0M30.961 96.27c-.331.365-1.036.266-1.552-.232a1.162 1.162 0 0 1-.344-1.543c.336-.365 1.045-.263 1.565.232.524.486.684 1.181.331 1.543zm0 0M35.461 98.22c-.146.473-.825.688-1.509.487-.683-.207-1.13-.76-.992-1.238.142-.477.824-.7 1.513-.486.682.206 1.13.756.988 1.238zm0 0M40.403 98.582c.017.498-.563.911-1.28.92-.723.017-1.308-.387-1.315-.877 0-.503.567-.911 1.289-.924.717-.013 1.306.387 1.306.881zm0 0M45.002 97.8c.086.485-.413.984-1.126 1.117-.701.129-1.35-.172-1.44-.653-.086-.498.422-.997 1.122-1.126.714-.124 1.353.168 1.444.662zm0 0"/></g></svg>