<svg xmlns="http://www.w3.org/2000/svg" width="447.13357" height="447.40579" viewBox="0 0 447.13357 447.40579">
  <title>sdfsdfsdfgdfgdfArtboard 1</title>
  <g id="a372c8be-f991-46dd-bb3b-efec553183c9" data-name="Layer 5">
    <circle cx="223.63451" cy="223.63451" r="223.63451" style="fill: #fec722"/>
  </g>
  <g id="1bab6d5b-076e-48d7-99b6-190982592735" data-name="Layer 1">
    <path d="M444.42356,195.51824a28.147,28.147,0,0,0-11.76438,3.5069c-1.83149-6.18335-8.78747-10.786-17.095-10.786a20.01815,20.01815,0,0,0-12.245,3.9707,16.19446,16.19446,0,0,0-3.49834-.38086c-7.2198,0-13.07264,4.671-13.07264,10.43292a8.45569,8.45569,0,0,0,.48357,2.80457h59.90181Q445.90452,200.25362,444.42356,195.51824Z" style="fill: #fff"/>
    <g>
      <circle cx="226.995" cy="181.48913" r="140.75" style="fill: #fe0"/>
      <circle cx="226.995" cy="181.48913" r="116.98238" style="fill: #ffca06"/>
      <circle cx="226.995" cy="181.48913" r="90.88673" style="fill: #f2991f"/>
    </g>
    <path d="M390.06635,105.73913a24.69967,24.69967,0,0,0-27.154-18.80206,34.74294,34.74294,0,0,0-61.50952-13.563,21.74922,21.74922,0,0,0-27.02417,32.36505Z" style="fill: #fff"/>
    <path d="M432.97614,303.58056c-49.56009-27.99329-124.62519-45.84143-208.64968-45.84143-84.70758,0-160.29847,18.14392-209.84227,46.53058C46.3618,387.83007,127.955,447.269,223.5977,447.269,319.50372,447.269,401.28565,387.50384,432.97614,303.58056Z" style="fill: #72bf44"/>
    <path d="M94.41168,290.07793a16.2019,16.2019,0,0,0-8.54272,3.74261c-1.05841-3.09216-4.73737-5.11267-8.8501-4.63544-4.61066.535-7.99695,3.99756-7.56342,7.7337a5.56543,5.56543,0,0,0,.29187,1.19617,14.08552,14.08552,0,0,0-1.62067.9494,17.41531,17.41531,0,0,0-3.7511-.68231c-.00623-.11645.01642-.22955.00287-.34668-.43359-3.73621-4.52277-6.3313-9.13342-5.79626-3.69086.42828-6.55945,2.74133-7.34973,5.56012a13.76387,13.76387,0,0,0-4.55939-.22278,11.94679,11.94679,0,0,0-9.50946,6.20062,9.02946,9.02946,0,0,0-6.56433-1.69849c-3.99908.46405-7.04749,3.17523-7.40753,6.33a9.09722,9.09722,0,0,0-2.41577-1.55164q2.23453,5.70364,4.77631,11.2475l72.19659-12.54395Zm-59.835,23.06714c-.12549-.09009-.23285-.19653-.363-.28223.13147-.12793.24823-.26263.36859-.39746C34.585,312.69268,34.55286,312.9157,34.57672,313.14507Z" style="fill: #72bf44"/>
    <path d="M92.17864,273.60363a14.80369,14.80369,0,0,0-7.26322-.62122,16.03454,16.03454,0,0,0-1.59495.36322A27.73126,27.73126,0,0,0,66.027,270.597a27.01657,27.01657,0,0,0-14.63781,7.00165,15.12714,15.12714,0,0,0-8.10616,5.21625A12.38761,12.38761,0,0,0,31.848,278.70629,11.7119,11.7119,0,0,0,22.212,286.605a31.11629,31.11629,0,0,0-4.94989.36548,30.23863,30.23863,0,0,0-5.817,1.49719,10.49436,10.49436,0,0,0-1.77019-1.6568,218.56461,218.56461,0,0,0,10.34426,28.49652l72.15945-12.1861Z" style="fill: #006838"/>
    <path d="M92.17864,278.6068a10.5294,10.5294,0,0,0-3.11589-.11621,9.79259,9.79259,0,0,0-6.53367,3.43823,8.65266,8.65266,0,0,0-6.70081-1.91064,9.13824,9.13824,0,0,0-4.66672,1.91382,7.45505,7.45505,0,0,0-5.59225-1.52069c-3.49822.40375-6.09349,2.8761-6.13632,5.66a17.02069,17.02069,0,0,0-2.51692.08527,16.64634,16.64634,0,0,0-5.05862,1.4176c-1.45217-2.60748-4.85325-4.22888-8.63108-3.79285-4.72434.54535-8.1939,4.07434-7.74967,7.88245a5.59514,5.59514,0,0,0,.2431.99121,19.32744,19.32744,0,0,0-8.69213,5.316,10.95932,10.95932,0,0,0-8.43124-2.381,11.67558,11.67558,0,0,0-5.50034,2.09222q3.33461,9.72034,7.53571,19.01807l71.54685-12.3244Z" style="fill: #0ea54a"/>
    <path d="M91.7442,290.39019a15.8858,15.8858,0,0,0-6.876,3.43036c-1.05841-3.09216-4.73737-5.11267-8.8501-4.63544-4.61066.535-7.99695,3.99756-7.56342,7.7337a5.56543,5.56543,0,0,0,.29187,1.19617,14.08552,14.08552,0,0,0-1.62067.9494,17.41531,17.41531,0,0,0-3.7511-.68231c-.00623-.11645.01642-.22955.00287-.34668-.43359-3.73621-4.52277-6.3313-9.13342-5.79626-3.69086.42828-6.55945,2.74133-7.34973,5.56012a13.76387,13.76387,0,0,0-4.55939-.22278,11.94679,11.94679,0,0,0-9.50946,6.20062,9.02946,9.02946,0,0,0-6.56433-1.69849c-3.99908.46405-7.04749,3.17523-7.40753,6.33a9.09722,9.09722,0,0,0-2.41577-1.55164q2.23453,5.70364,4.77631,11.2475L91.7442,305.85009ZM33.57592,313.14507c-.12549-.09009-.23285-.19653-.363-.28223.13147-.12793.24823-.26263.36859-.39746C33.58416,312.69268,33.55206,312.9157,33.57592,313.14507Z" style="fill: #72bf44"/>
    <g>
      <path d="M388.46845,301.611c.785-10.3.87366-17.36743.95136-23.64966.0752-6.01514.13867-11.20947.82422-17.72607,4.80469-29.66455,7.46-45.17383,7.48633-45.32715l-1.9707-.33789c-.02637.15332-2.68359,15.66992-7.49707,45.40039-.70215,6.66357-.76758,11.90137-.84277,17.96582-.07733,6.25916-.16589,13.3017-.95056,23.57715Q387.47577,301.54229,388.46845,301.611Z" style="fill: #594d34"/>
      <g>
        <path d="M389.68207,194.0166c11.68344,1.537,15.87053,9.44139,13.75689,14.12445a44.84061,44.84061,0,0,1-5.81114,9.042l-5.80794.015s5.40346-12.12491,2.799-16.0943S389.68207,194.0166,389.68207,194.0166Z" style="fill: #30b44a"/>
        <path d="M371.95758,201.775c4.25762.40619,4.49614.76253,11.34354,3.55965s4.6186,6.55949,7.08041,8.94,13.23883,3.89237,8.16453-5.10226-14.46766-10.94871-19.89151-9.56713S376.20549,200.29273,371.95758,201.775Z" style="fill: #30b44a"/>
        <path d="M398.038,213.6829a42.33971,42.33971,0,0,0-7.53115-1.67712c-2.72434-.15845-11.37367-.3633-18.05657,4.89123-1.86237,1.46431-3.58109,5.96677-3.58109,5.96677s3.88776-3.972,14.67925-3.22234C391.03666,220.16163,398.038,213.6829,398.038,213.6829Z" style="fill: #30b44a"/>
        <path d="M396.441,215.06545c-6.87718,3.1658-12.50941,6.9235-12.49705,11.09134s1.02195,5.2162,1.02195,5.2162a31.434,31.434,0,0,1,5.45338-6.61125C393.64391,221.91284,396.441,215.06545,396.441,215.06545Z" style="fill: #30b44a"/>
        <path d="M398.1259,213.69709c3.70851-1.97711,5.49784-5.06242,11.61276-4.46535s15.39641,5.87155,15.39641,5.87155a28.22618,28.22618,0,0,0-10.32159,1.65655c-5.81146,2.004-5.2162,1.02195-9.17276.20427A23.70334,23.70334,0,0,1,398.1259,213.69709Z" style="fill: #30b44a"/>
        <path d="M398.12946,213.558s8.97935-.99294,16.33759,4.77891,4.06139,17.29535,4.06139,17.29535A24.09315,24.09315,0,0,0,406.759,223.67455C397.906,219.46554,398.12946,213.558,398.12946,213.558Z" style="fill: #30b44a"/>
        <path d="M398.089,213.646s9.5166,5.55126,10.96654,13.29944-5.51113,13.40428-5.51113,13.40428,4.18053-6.55637-2.38877-13.2549S398.089,213.646,398.089,213.646Z" style="fill: #30b44a"/>
        <path d="M397.84942,214.01321c-6.01912,2.36367-7.95771,8.15457-8.845,13.45311s4.17733,10.34292,4.17733,10.34292-1.85248-7.78565.41747-10.59338S397.84942,214.01321,397.84942,214.01321Z" style="fill: #30b44a"/>
      </g>
    </g>
    <path d="M422.49968,280.91155A23.80057,23.80057,0,0,0,409.939,282.4782a15.76922,15.76922,0,0,0-8.4315-3.89941c-.39095-.05707-.78041-.08765-1.16932-.11829-.79584-4.18372-4.50259-7.64667-9.62576-8.39423a13.17663,13.17663,0,0,0-11.97694,4.34711,26.252,26.252,0,0,0-5.52165-1.42371,27.76759,27.76759,0,0,0-4.747-.28033,10.269,10.269,0,0,0-6.21029-7.1897v35.46722l67.40167,10.88434a217.80028,217.80028,0,0,0,7.75865-21.27692C434.66212,285.64446,429.28254,281.9013,422.49968,280.91155Z" style="fill: #006838"/>
    <path d="M426.83373,291.94042a10.8614,10.8614,0,0,0-9.327,3.541,17.45192,17.45192,0,0,0-12.95273-7.74231,9.70478,9.70478,0,0,0-5.26474-2.18872,10.70063,10.70063,0,0,0-5.36854.82068,6.68984,6.68984,0,0,0-5.60255-3.8609,7.31668,7.31668,0,0,0-7.5642,4.06171,7.16229,7.16229,0,0,0-4.38015-2.04041,7.88189,7.88189,0,0,0-5.32417,1.35352c-.20569-.15649-.42921-.29553-.64354-.44391.66291-4.50745-2.95225-8.57928-8.14954-9.163v27.29742l66.60552,10.12378q3.37532-7.74161,6.16629-15.77673A9.43983,9.43983,0,0,0,426.83373,291.94042Z" style="fill: #30b44a"/>
    <path d="M427.03078,305.54644a12.33553,12.33553,0,0,0-3.39732.15723,6.647,6.647,0,0,0-5.70277-4.09021c-3.57641-.371-6.86592,1.67346-7.73527,4.63965a12.71386,12.71386,0,0,0-4.42459-1.28217,13.4355,13.4355,0,0,0-4.14312.242,10.56484,10.56484,0,0,0-4.88058-3.89746,6.09713,6.09713,0,0,0,.64545-1.83289c.59509-3.68982-2.37938-7.03961-6.64364-7.48206a8.668,8.668,0,0,0-6.36778,1.86938,16.03618,16.03618,0,0,0-10.24868-4.9519,17.77126,17.77126,0,0,0-11.68942,2.82587c-.05986-.01379-.1262-.02594-.18649-.03967v13.89459c27.81731,4.029,53.51745,7.75128,65.963,9.55334,1.19259-2.68195,2.344-5.38568,3.43065-8.12219A11.56113,11.56113,0,0,0,427.03078,305.54644Z" style="fill: #72bf44"/>
    <polygon points="90.725 326.808 85.307 175.093 373.036 175.093 371.291 209.802 377.141 216.995 374.935 281.535 369.242 281.339 367.587 327.657 90.725 326.808" style="fill: #9f512d"/>
    <path d="M43.51633,183.56553c14.096,5.10979,28.53541,10.522,42.66616,16.0486l-.25-12.5625a1437.68788,1437.68788,0,0,1,286.375.375l-.56249,12.84375c11.50189-5.71686,23.11822-11.26432,34.59655-16.70485q-10.47248-25.73709-20.9589-51.32075a1447.44071,1447.44071,0,0,0-316.64138-.46944Q56.11933,157.55941,43.51633,183.56553Z" style="fill: #a6a8ab"/>
    <polyline points="372.432 186.177 371.291 209.802 377.141 216.995 374.935 281.535 369.242 281.339 367.587 327.657 335.52 327.519 337.041 278.757 341.792 279.067 343.192 214.789 339.224 208.215 340.557 183.177" style="fill: #af6654"/>
    <polyline points="299.078 180.489 298.311 205.583 300.421 212.583 300.134 276.26 297.085 276.151 296.25 327.231 327.465 327.231 328.912 278.481 331.78 278.466 333.219 214.361 331.013 207.309 331.912 182.656" style="fill: #af6654"/>
    <polyline points="253.527 293.426 253.58 272.521 254.198 272.52 254.677 210.953 253.718 204.048 253.828 178.989 290.495 180.156 289.968 205.295 291.215 212.008 291.215 275.206 288.9 275.305 288.05 326.943" style="fill: #af6654"/>
    <g>
      <path d="M406.75315,183.02245a1464.5017,1464.5017,0,0,0-362.84184,0q2.6629-7.9062,5.32665-15.8025V143.16231q-3.72925-6.67651-7.45678-13.33381a1464.5008,1464.5008,0,0,1,367.10206,0q-3.72746,6.65731-7.45675,13.33381v24.05764Q404.09021,175.11629,406.75315,183.02245Z" style="fill: #e6e7e8"/>
      <path d="M406.75315,183.02245a1464.5017,1464.5017,0,0,0-362.84184,0q2.6629-7.9062,5.32665-15.8025V143.16231q-3.72925-6.67651-7.45678-13.33381a1464.5008,1464.5008,0,0,1,367.10206,0q-3.72746,6.65731-7.45675,13.33381v24.05764Q404.09021,175.11629,406.75315,183.02245Z" style="fill: #e6e7e8"/>
    </g>
    <g>
      <path d="M327.40977,135.28281q-7.99362-.58158-15.99194-1.07346v26.08453q7.99825.49055,15.99194,1.07346Z" style="fill: #5a4d34"/>
      <path d="M254.18063,131.86872q-8.01005-.1651-16.02116-.243V157.7103q8.01111.074,16.02116.243Z" style="fill: #5a4d34"/>
      <path d="M363.95635,138.42283q-7.979-.78966-15.96384-1.49461v26.08453q7.98529.69873,15.96384,1.49461Z" style="fill: #5a4d34"/>
      <path d="M382.20492,140.34576q-7.9698-.89375-15.947-1.69626V164.734q7.97707.80272,15.947,1.69626Z" style="fill: #5a4d34"/>
      <path d="M272.49888,132.364q-8.00731-.26919-16.01666-.45009v26.08453q8.00931.17816,16.01666.45009Z" style="fill: #5a4d34"/>
      <path d="M309.11626,134.07373q-7.99983-.47748-16.00318-.86892v26.08453q8.00352.38645,16.00318.86892Z" style="fill: #5a4d34"/>
      <path d="M290.8115,133.09263q-8.00394-.37328-16.011-.64732v26.08453q8.00679.28225,16.011.64732Z" style="fill: #5a4d34"/>
      <path d="M345.69093,136.728q-7.98687-.68556-15.97958-1.27322v26.08453q7.99235.59464,15.97958,1.27322Z" style="fill: #5a4d34"/>
      <path d="M235.8579,131.6014q-8.01047-.0609-16.02116-.02128v26.08453q8.01058-.03013,16.02116.02128Z" style="fill: #5a4d34"/>
      <path d="M217.5346,131.58917q-8.01121.0432-16.02172.17328V157.847q8.01047-.13433,16.02172-.17328Z" style="fill: #5a4d34"/>
      <path d="M102.3151,136.92584q-7.985.69852-15.96328,1.49433V164.5047q7.97865-.78955,15.96328-1.49433Z" style="fill: #5a4d34"/>
      <path d="M84.05024,138.64675q-7.97613.80251-15.9453,1.6957V166.427q7.969-.89344,15.9453-1.6957Z" style="fill: #5a4d34"/>
      <path d="M121.28629,135.40189s-11.38571.87034-16.6696,1.32384v26.08453c5.498-.47188,17.3124-1.37153,17.3124-1.37153Z" style="fill: #5a4d34"/>
      <path d="M52.57833,142.47308v26.08453q6.60914-.97814,13.225-1.86744V140.60564Q59.18774,141.498,52.57833,142.47308Z" style="fill: #5a4d34"/>
      <path d="M397.84942,142.51424q-6.66785-.99953-13.34292-1.90522v26.08453q6.67463.91,13.34292,1.90522Z" style="fill: #5a4d34"/>
      <path d="M199.2113,131.80762c-4.44974.08188-13.3482.30854-13.3482.30854l.00235,26.08447s8.8969-.22662,13.34586-.30848Z" style="fill: #5a4d34"/>
    </g>
    <path d="M199.82833,118.48913l-.02084-12.8125S181.84735,90.56625,172.94,84.208c-6.64837-3.5801-10.69229-8.01922-29.4038-8.01922s-20.85,8.01922-20.85,8.01922l7.4846,257.86529s-1.21725,6.87875,18.63388,6.87875,28.41224-6.87875,28.41224-6.87875l23.523-14.96923L199.745,180.36413l-18.31251-8,1.13056-13.84468v-25.1269L181.37,118.94746Z" style="fill: #af6654"/>
    <path d="M122.66166,83.07246l.21633,8.25089s4.16948-8.21819,20.85-8.01922,26.87913,6.53724,29.4038,8.01922,26.73073,21.38458,26.73073,21.38458v-8.55382s-24.07684-19.433-26.73073-21.3846-11.56059-8.3329-29.4038-8.01922S122.66166,83.07246,122.66166,83.07246Z" style="fill: #e6e7e8"/>
    <polyline points="209.509 177.945 209.413 290.051 244.512 291.489 245.471 178.52" style="fill: #af6654"/>
    <polygon points="291.557 244.253 291.402 274.726 255.749 273.288 255.893 243.03 291.557 244.253" style="fill: #fff"/>
    <polygon points="376.43 250.293 375.294 281.054 343.283 279.043 344.419 248.21 376.43 250.293" style="fill: #fff"/>
    <polygon points="332.48 247.301 331.93 278.035 301.781 276.021 301.904 245.116 332.48 247.301" style="fill: #fff"/>
    <polygon points="255.244 180.507 254.856 204.215 255.911 211.216 289.912 212.197 288.662 205.197 289.287 181.635 255.244 180.507" style="fill: #5a4d34"/>
    <polygon points="300.608 182.1 299.662 206.072 301.912 212.656 332.135 214.322 329.834 207.034 331.037 183.968 300.608 182.1" style="fill: #5a4d34"/>
    <polygon points="341.541 184.637 340.356 207.98 344.62 214.864 375.62 216.927 369.995 209.864 371.067 187.297 341.541 184.637" style="fill: #594d34"/>
    <path d="M244.99155,244.13536s-3.836-9.78284-17.64545-9.78284-18.029,9.06951-18.029,9.06951l.1918,30.77519,35.0991.45857Z" style="fill: #5a4d34"/>
    <g>
      <polygon points="177.578 288.906 231.374 285.946 280.662 288.822 262.733 296.016 194.549 296.303 177.578 288.906" style="fill: #6d6e70"/>
      <g>
        <path d="M280.82413,288.82335q-51.59619-2.43329-103.24969,0V273.28771q51.59619-2.43329,103.24969,0Z" style="fill: #e6e7e8"/>
        <path d="M280.82413,288.82335q-51.59619-2.43329-103.24969,0V273.28771q51.59619-2.43329,103.24969,0Z" style="fill: #e6e7e8"/>
      </g>
    </g>
    <path d="M220.53949,346.73913l-7.67211,33.62841C163.877,381.39663,119.15759,387.701,83.69312,397.6029A223.27336,223.27336,0,0,0,365.995,396.37377c-34.47406-9.13065-77.13786-14.94047-123.69626-15.9853l-7.80322-33.89934Z" style="fill: #f8f3cc"/>
    <path d="M226.62488,388.93566c-50.60175,0-96.83981,6.38491-132.21319,16.92552A221.58846,221.58846,0,0,0,354.495,404.60193C319.71891,394.81389,275.17988,388.93566,226.62488,388.93566Z" style="fill: #00a8e3"/>
    <path d="M209.365,224.93358l35.53065.2877.05974,19.17312s-3.765-9.23559-17.574-9.34193-18.09424,8.39593-18.09424,8.39593Z" style="fill: #e6e7e8"/>
    <g>
      <ellipse cx="227.31465" cy="423.44954" rx="50.91558" ry="10.04803" style="fill: #008fb6"/>
      <path d="M163.59741,425.93535c-.3067-2.31641-8.46722-3.14673-18.22711-1.85455a52.53862,52.53862,0,0,0-13.59644,3.40784q6.16214,2.80673,12.52557,5.23383c.71759-.07373,1.44287-.1554,2.18152-.25317C156.24078,431.17711,163.90405,428.25176,163.59741,425.93535Z" style="fill: #008fb6"/>
      <path d="M194.7591,438.12487c-3.23792-1.6532-7.51062.23419-9.54327,4.21545a9.91885,9.91885,0,0,0-.632,1.5481q6.551,1.15686,13.23425,1.9126C198.46314,442.57372,197.32422,439.4345,194.7591,438.12487Z" style="fill: #008fb6"/>
      <path d="M224.28137,440.48748c-2.50061-1.73486-5.57886.06079-6.87537,4.01074a11.58245,11.58245,0,0,0-.5282,2.6723c2.12543.06042,4.25641.09851,6.39642.09851,1.25562,0,2.50488-.02667,3.75549-.04755C227.0484,444.37322,226.04779,441.71294,224.28137,440.48748Z" style="fill: #008fb6"/>
      <path d="M258.576,437.37823c-2.53046,1.29193-3.67175,4.36438-3.08313,7.54547q6.59958-.96414,13.07031-2.308a9.94545,9.94545,0,0,0-.44391-1.02191C266.08655,437.61242,261.8139,435.72509,258.576,437.37823Z" style="fill: #008fb6"/>
      <path d="M289.52411,425.93535c-.27814,2.10077,6.00677,4.6983,14.45795,6.1283q6.95737-2.73074,13.67419-5.92047a63.98144,63.98144,0,0,0-9.90509-2.06238C297.99133,422.78863,289.83075,423.61895,289.52411,425.93535Z" style="fill: #008fb6"/>
      <path d="M249.241,400.07188s-2.63066-2.94358-8.83824,2.23769a14.17615,14.17615,0,0,0-4.99941,10.42168" style="fill: none;stroke: #96d9f7;stroke-linecap: round;stroke-linejoin: round;stroke-width: 3px"/>
      <path d="M204.03184,400.07188s2.63066-2.94358,8.83824,2.23769a14.17615,14.17615,0,0,1,4.99941,10.42168" style="fill: none;stroke: #9cdbf8;stroke-linecap: round;stroke-linejoin: round;stroke-width: 3px"/>
      <path d="M170.35047,408.91786a23.82868,23.82868,0,0,1,14.63122-8.114c9.5479-1.40828,17.96228,13.12025,17.96228,13.12025" style="fill: none;stroke: #bee7fa;stroke-linecap: round;stroke-linejoin: round;stroke-width: 3px"/>
      <path d="M188.52211,422.096s-10.80816-11.97469-25.45106-10.08852-22.43949,15.64976-22.43949,15.64976" style="fill: none;stroke: #e9f6fd;stroke-linecap: round;stroke-linejoin: round;stroke-width: 3px"/>
      <path d="M314.17383,427.71323s-7.7699-14.13641-22.45466-15.66279-25.4333,10.07933-25.4333,10.07933" style="fill: none;stroke: #d6effb;stroke-linecap: round;stroke-linejoin: round;stroke-width: 3px"/>
      <path d="M281.00064,406.5982A23.82868,23.82868,0,0,0,265.342,400.706c-9.6512,0-15.85555,15.60084-15.85555,15.60084" style="fill: none;stroke: #c0e7fa;stroke-linecap: round;stroke-linejoin: round;stroke-width: 3px"/>
      <path d="M249.259,428.11813s2.63066-4.19839,8.83824,3.19159a21.67349,21.67349,0,0,1,5.1478,12.76274" style="fill: none;stroke: #e9f6fd;stroke-linecap: round;stroke-linejoin: round;stroke-width: 3px"/>
      <path d="M204.01388,428.11813s-2.63066-4.19839-8.83824,3.19159a21.06172,21.06172,0,0,0-4.764,13.42941" style="fill: none;stroke: #fff;stroke-linecap: round;stroke-linejoin: round;stroke-width: 3px"/>
      <g>
        <path d="M226.90125,426.88366a4.21577,4.21577,0,0,1-4.17383-4.25391l.7168-55.51074a4.14661,4.14661,0,0,1,4.1543-4.14844l.13965.002a4.19844,4.19844,0,0,1,4.10938,4.25391l-.7168,55.50879a4.21988,4.21988,0,0,1-4.2002,4.14844Z" style="fill: #b2e2f9"/>
        <path d="M227.59943,364.97008c.02481,0,.04959.0004.07465.00119a2.20255,2.20255,0,0,1,2.17358,2.22949l-.717,55.50912a2.20255,2.20255,0,0,1-2.20047,2.17358h-.029a2.20248,2.20248,0,0,1-2.17358-2.22946l.717-55.50916a2.15825,2.15825,0,0,1,2.15485-2.17477m0-4h-.00031a6.13,6.13,0,0,0-6.15421,6.12186l-.717,55.51044a6.2114,6.2114,0,0,0,6.12024,6.28079l.02652.00034h.02652a6.23242,6.23242,0,0,0,6.22913-6.12006l.717-55.511a6.21161,6.21161,0,0,0-6.08234-6.28018c-.05542-.00146-.11047-.0022-.16556-.0022Z" style="fill: #008fb6"/>
      </g>
      <path d="M225.68645,430.44072s-.73394-4.19839-2.46582,3.19159a73.11588,73.11588,0,0,0-1.47564,13.77349" style="fill: none;stroke: #fff;stroke-linecap: round;stroke-linejoin: round;stroke-width: 3px"/>
      <g>
        <path d="M265.51022,374.98523c0,.81075-2.46487-4.74013-3.6025-4.17131-.73263.36631,3.12849,8.153,1.61164,9.29066-2.68035,2.01026-9.59959-6.4307-11.18671-4.74013-2.35786,2.51155,1.64921,11.56627-2.18046,13.36717-2.565,1.20619-10.30282-13.78392-13.36717-12.988-4.09655,1.06408,1.47726,15.67172-3.87337,15.16214-3.5-.33333-6.64972-19.71267-9.30419-19.99707-3.6948-.39587-5.51492,13.36057-8.91145,12.79835s-1.422-5.40375-3.7921-6.92059c-2.71867-1.73995-7.946,10.51513-10.33348,9.00625-1.09982-.69508,2.074-11.26815,1.13763-12.03993-1.26351-1.04145-5.13488,5.04906-6.06737,3.88691-.98183-1.22364.09724-4.45027-.474-5.783-.70839-1.65261-6.06737,4.905-6.06737,3.12849,0-11.99,17.10516-21.7098,38.20545-21.7098S265.51022,362.99524,265.51022,374.98523Z" style="fill: #64b1d3"/>
        <path d="M227.30475,349.23913c12.80435,0,22.55,4.3367,25.43387,11.31775l.25882.62659.58649.34a22.6224,22.6224,0,0,1,8.062,7.28906,2.37161,2.37161,0,0,0-.63269.21252c-1.84445.92227-1.23355,2.75995-.30878,5.54163.3024.90967.84332,2.53671,1.07092,3.63571a25.499,25.499,0,0,1-3.63507-2.36914c-2.05325-1.50525-3.675-2.69421-5.24142-2.69421a2.741,2.741,0,0,0-2.02438.85648c-1.66385,1.77231-1.41473,4.594-1.151,7.58142.13586,1.53906.348,3.94174-.08084,4.93527a45.05312,45.05312,0,0,1-4.28531-5.186c-3.66736-4.86227-5.86224-7.61325-8.32513-7.61325a2.984,2.984,0,0,0-.75.09488c-3.52017.91437-3.415,5.53143-3.31326,9.99649a37.57131,37.57131,0,0,1-.07254,4.45914,77.68408,77.68408,0,0,1-2.94653-8.13977c-2.4458-7.57559-3.63232-10.93613-6.12939-11.20367a3.45556,3.45556,0,0,0-.36917-.01978c-3.14655,0-4.69186,3.825-6.32791,7.87457a23.5975,23.5975,0,0,1-2.35059,4.85391c-.14978-.15439-.27316-.5675-.44858-1.78671-.21677-1.50653-.51364-3.56982-2.3421-4.74005a3.061,3.061,0,0,0-1.65283-.48517c-2.37888,0-4.30078,2.62875-6.52612,5.67261-.3.41031-.6655.91028-1.04419,1.40909.11554-.6423.236-1.2735.33551-1.79468.88651-4.64453,1.25345-6.567-.11435-7.69434a2.51552,2.51552,0,0,0-1.61942-.57712c-1.45285,0-2.67886,1.14725-4.0618,2.5314a6.7605,6.7605,0,0,0-.294-3.095,2.41,2.41,0,0,0-2.24533-1.48172,4.78344,4.78344,0,0,0-2.8205,1.24512c1.28326-3.1467,4.00879-6.12152,7.9801-8.63956l.44818-.28415.24835-.469c3.86429-7.29745,14.58975-12.20044,26.689-12.20044m0-2c-13.60284,0-24.4447,5.68848-28.45648,13.26447-6.05957,3.8421-9.749,8.91626-9.749,14.48163,0,.21512.07877.30814.21817.30814.88083,0,4.18982-3.70624,5.44214-3.70624a.40981.40981,0,0,1,.40707.26962c.57123,1.3327-.50781,4.55933.474,5.783a.3781.3781,0,0,0,.30966.14813c1.17047,0,4.04221-4.15543,5.41037-4.15543a.52838.52838,0,0,1,.34735.12039c.93634.77179-2.23743,11.34485-1.13763,12.03992a.81633.81633,0,0,0,.44492.12906c2.363,0,6.663-9.3049,9.314-9.3049a1.0444,1.0444,0,0,1,.57462.16962c2.37006,1.51685.39557,6.35834,3.79211,6.92059a1.23635,1.23635,0,0,0,.20224.01678c3.22055,0,5.03555-12.82358,8.553-12.82358a1.46553,1.46553,0,0,1,.15616.00839c2.65448.28442,6.29346,19.68979,9.13751,20.16379a2.036,2.036,0,0,0,.33383.02905c4.09433,0-.2876-14.3205,3.70621-15.35788a.98008.98008,0,0,1,.24722-.03064c3.08636,0,10.03891,13.08774,12.79935,13.08774a.74305.74305,0,0,0,.32062-.06912c3.82965-1.8009-.17743-10.85565,2.18042-13.36719a.73967.73967,0,0,1,.56625-.22537c1.99069,0,6.8334,5.277,9.62027,5.277a1.6189,1.6189,0,0,0,1.00018-.31155c1.51685-1.13763-2.34424-8.92432-1.61163-9.29065a.38854.38854,0,0,1,.176-.041c1.11087,0,3.11154,4.2934,3.39316,4.2934.02179,0,.03329-.0257.03329-.08109,0-5.91589-4.16943-11.27625-10.9231-15.192-3.19861-7.743-13.70929-12.55414-27.28235-12.55414Z" style="fill: #b4e2ec"/>
        <path d="M197.12,361.98913c-.30857.48584,3.3174-.5288,4.125-.125.52009.26,1.37713,1.3164,2.45393,2.124,1.90277,1.42708,4.712-2.26822,5.83864-1.0681,1.67384,1.78294-.21468,3.86616,2.504,5.14461,1.82089.85627,6.45167-9.85571,8.627-9.29066,2.90813.75539.95907,6.90295,4.26612,6.35177,2.019-.3365,3.11037-5.16693,4.99477-5.36883,2.62293-.281,3.87556,10.69768,6.28674,10.29856s1.049-5.04916,2.73146-6.126c1.93-1.23518,5.72074,10.70981,7.41242,9.63366,1.8849-1.19907-1.549-11.23937-.88432-11.78726.897-.73932,5.39422,5.33819,6.64422,3.96319,1.88956-2.07851-.15553-3.42893.25-4.375.50288-1.17318,5.89254,1.83518,5.25.75-5.625-9.5-15.33621-14.875-30.31522-14.875S202.995,352.73913,197.12,361.98913Z" style="fill: #008fb6"/>
      </g>
    </g>
    <path d="M190.42179,65.24313A31.06933,31.06933,0,0,0,152.6483,36.6822,27.07941,27.07941,0,0,0,107.18039,47.177,19.46725,19.46725,0,0,0,87.92991,65.24313Z" style="fill: #fff"/>
    <path d="M.46722,230.00874c.66743-11.15833,10.47764-20.01353,22.48521-20.01353a23.90976,23.90976,0,0,1,4.88994.50749,20.149,20.149,0,0,1,14.22917-5.76357,19.54262,19.54262,0,0,1,18.72226,12.93116c7.39677.05839,13.43275,5.47867,13.95118,12.33845Z" style="fill: #fff"/>
  </g>
  <g id="35265072-c0d8-4b91-a872-117e29d7394e" data-name="Layer 2">
    <g>
      <g>
        <path d="M106.63159,207.341s2.33432-4.28294,4.88707-5.05826c3.09813-.9407,4.87035.33286,4.87035.33286l.79284-1.74729,1.58622,6.50421s.25705.58629-.81017,1.37507c-1.06395.78585-1.14827.64092-1.14827.64092s-.80891-2.65407-2.22865-2.897c-1.4187-.24471-1.34623,1.61942-1.24567,2.21063.10226.59283,1.39306,2.98761,3.36353,1.88323a9.44493,9.44493,0,0,0,3.10892-2.657s.28413-.75612.60642-.54578c.32061.211,1.54291,1.43244,1.54291,1.43244l-.16546,7.84005s.03768.96934-1.27694,1.39269c-1.31511.42448-1.318.34935-1.318.34935l.6102-2.41224.86064-.03346-.44824-5.50292a23.9854,23.9854,0,0,1-1.88048,6.04381,23.51374,23.51374,0,0,1-4.1033,5.30593,6.59334,6.59334,0,0,0,1.242-4.50548c-.23829-1.6131-1.01685-3.45772-4.632-6.2119a48.84319,48.84319,0,0,1-4.21383-3.73989" style="fill: #ffca06"/>
        <path d="M111.55081,199.07707a2.207,2.207,0,0,1-2.19023-2.02574,2.20645,2.20645,0,0,1-2.02577,2.18965,2.20877,2.20877,0,0,1,2.18969,2.02693,2.2093,2.2093,0,0,1,2.0263-2.19083" style="fill: #ffca06"/>
      </g>
      <path d="M112.1727,194.39282c-6.85212-.66006-13.34723,1.59162-16.308,5.70508s-4.07708,8.00893-3.05445,12.99149,5.796,9.86807,8.80568,10.775,4.03775,1.01328,6.84076.36794c2.40406-.87363,3.02-1.33641,3.95015-2.49407a5.502,5.502,0,0,0,1.16312-3.946,6.46471,6.46471,0,0,0-2.16462-4.25552,85.15035,85.15035,0,0,1-6.667-5.93338c-.97426-1.22989-3.00312-3.24772-2.75317-5.59793a7.99071,7.99071,0,0,1,3.34215-5.59109A13.89791,13.89791,0,0,1,112.1727,194.39282Z" style="fill: #ffca06"/>
    </g>
  </g>
</svg>
