<svg xmlns="http://www.w3.org/2000/svg" viewBox="0 0 443.4 62.2">
  <defs>
    <style>
      .b{fill:#333333}
    </style>
  </defs>
  <path fill="#ffc824" d="M290.8 0h152.6v62.2H290.8z"/>
  <path class="b" d="M3.5 47.5h19.3a1.1 1.1 0 011.2 1.3v.8c0 .8-.4 1.2-1.2 1.2H1.1A1 1 0 010 49.6V13a1 1 0 011.2-1.2h1A1 1 0 013.6 13zM43.4 11.8a1.1 1.1 0 011.3 1.2v.8q0 1.3-1.3 1.3h-11v34.5c0 .8-.4 1.2-1.3 1.2h-1a1 1 0 01-1.2-1.2V15.1h-11a1 1 0 01-1.3-1.2V13c0-.8.4-1.3 1.3-1.3zM52.8 49.6a1 1 0 01-1.3 1.2h-1a1 1 0 01-1.3-1.2V13a1 1 0 011.2-1.2h1a1 1 0 011.4 1.2zM99.2 11.8a1.1 1.1 0 011.3 1.2v.8c0 .9-.4 1.3-1.3 1.3h-11v34.5c0 .8-.4 1.2-1.3 1.2h-1a1 1 0 01-1.2-1.2V15.1h-11a1 1 0 01-1.3-1.2V13c0-.8.4-1.3 1.2-1.3zM96.2 34a18.3 18.3 0 011.1-5.1 12.6 12.6 0 012.5-4 11 11 0 013.7-2.7 12.2 12.2 0 015-1q5.8 0 9 3.9t3.3 10.5v.9a1.1 1.1 0 01-.4.9 1.3 1.3 0 01-1 .3H99.7v.6a11.9 11.9 0 00.7 3.7 10.7 10.7 0 001.8 3.1 8.7 8.7 0 002.7 2.2 7.8 7.8 0 003.6.9 9.9 9.9 0 003.2-.5 11 11 0 002.2-1 7.9 7.9 0 001.6-1.2 7.7 7.7 0 00.8-1 2.6 2.6 0 01.8-.8 2.2 2.2 0 01.9-.1h.9a1.3 1.3 0 01.8.3.8.8 0 01.3.8 4.4 4.4 0 01-.8 2 9.4 9.4 0 01-2.3 2.1 14.3 14.3 0 01-3.7 1.8 14.1 14.1 0 01-4.7.8 12.2 12.2 0 01-4.9-1 10.6 10.6 0 01-3.7-2.5 12.8 12.8 0 01-2.5-4.1 18.1 18.1 0 01-1.1-5.2v-2.3-2.2zm3.4.6h17.8v-.2a12 12 0 00-.7-4 9.5 9.5 0 00-1.7-3 8 8 0 00-2.8-2.2 9 9 0 00-3.8-.7 8.8 8.8 0 00-3.7.7 8.3 8.3 0 00-2.8 2.1 9 9 0 00-1.7 3.2 12.6 12.6 0 00-.6 3.9zM130.4 25a10 10 0 013.3-2.8 10.2 10.2 0 014.7-1 10.4 10.4 0 015.5 1.4 9.3 9.3 0 013.5 3.9 9.5 9.5 0 013.7-3.9 11.3 11.3 0 015.8-1.4 10.8 10.8 0 014.1.8 9.4 9.4 0 013.3 2.3 10.9 10.9 0 012.2 3.8 15.7 15.7 0 01.8 5.2v16.3a1 1 0 01-1.2 1.2h-1a1 1 0 01-1.3-1.2V34a14.3 14.3 0 00-.6-4.5 7.6 7.6 0 00-1.6-3A5.9 5.9 0 00159 25a9.1 9.1 0 00-2.8-.4 8 8 0 00-2.6.4 6.4 6.4 0 00-2.4 1.6 8.1 8.1 0 00-1.8 2.9 13.4 13.4 0 00-.7 4.5v15.7a1 1 0 01-1.2 1.2h-1a1 1 0 01-1.2-1.2V34a13.4 13.4 0 00-.6-4.5 8.4 8.4 0 00-1.8-3 6 6 0 00-2.4-1.5 8.9 8.9 0 00-2.8-.4 8 8 0 00-2.6.4 6.2 6.2 0 00-2.4 1.6 7.9 7.9 0 00-1.7 2.8 13 13 0 00-.7 4.6v15.7a1 1 0 01-1.2 1.2h-1a1 1 0 01-1.2-1.2V23a1 1 0 011.2-1.2h1a1 1 0 011.2 1.2zM186.7 51.4a11.5 11.5 0 01-5.8-1.3 12 12 0 01-3.6-3.1v13.2a1 1 0 01-1.3 1.2h-1a1 1 0 01-1.1-1.2V23a1 1 0 011.2-1.2h1a1 1 0 011.2 1.2v2.6a11.4 11.4 0 013.6-3.1 11.6 11.6 0 015.8-1.3 12 12 0 015.5 1.2 10.3 10.3 0 013.6 3 12.5 12.5 0 012 4.2 22.5 22.5 0 01.8 4.8v3.7a22.5 22.5 0 01-.8 4.9 12.4 12.4 0 01-2 4.2 10.2 10.2 0 01-3.6 3 12.1 12.1 0 01-5.5 1.2zm-9.4-17v4.3a12.6 12.6 0 00.6 3.3 8.6 8.6 0 001.6 3 8.8 8.8 0 002.8 2.3 8.6 8.6 0 004 .8 9 9 0 004.1-.8 7.4 7.4 0 002.7-2.3 9.6 9.6 0 001.5-3.3 20.4 20.4 0 00.6-3.9v-3a20 20 0 00-.6-4 9.5 9.5 0 00-1.5-3.2 7.6 7.6 0 00-2.7-2.3 10 10 0 00-8.2 0 8.3 8.3 0 00-2.7 2.3 9.8 9.8 0 00-1.7 3.2 13 13 0 00-.5 3.5zM207.5 49.6a1 1 0 01-1.3 1.2h-.9a1 1 0 01-1.2-1.2V12.4a1 1 0 011.2-1.2h1a1 1 0 011.2 1.2zM233.3 50.8a1 1 0 01-1.3-1.2V47a9.6 9.6 0 01-1.3 1.5 8.6 8.6 0 01-2 1.4 12.5 12.5 0 01-2.7 1 15.3 15.3 0 01-3.8.5 11.3 11.3 0 01-3.9-.7 10.4 10.4 0 01-3.1-1.7 8.5 8.5 0 01-2.2-2.6 6.9 6.9 0 01-.8-3.3 7 7 0 01.8-3.4 8.3 8.3 0 012.2-2.7 12.5 12.5 0 013.5-1.9 20.6 20.6 0 014.5-1.1l8.9-1.2v-2a6 6 0 00-1.9-4.6q-1.8-1.7-5.7-1.7a8.3 8.3 0 00-4.9 1.2 5.3 5.3 0 00-2.1 2.6 2 2 0 01-.6.9 1.2 1.2 0 01-.8.3h-.7a1.2 1.2 0 01-1-.4 1.2 1.2 0 01-.3-.9 4.8 4.8 0 01.6-2 7.3 7.3 0 011.8-2.2 11 11 0 013.3-2 12.4 12.4 0 014.7-.8 14.2 14.2 0 015.4 1 8.7 8.7 0 013.4 2.3 8 8 0 011.7 3.1 13 13 0 01.5 3.4v18.6a1 1 0 01-1.2 1.2zm-10.6-2.6a10 10 0 003.7-.7 8.3 8.3 0 003-2 8.8 8.8 0 002-3.2 13.2 13.2 0 00.7-4.5v-2l-7.2 1c-6.2 1-9.3 2.9-9.3 6a4.4 4.4 0 00.6 2.4 5.5 5.5 0 001.7 1.7 7.2 7.2 0 002.3 1 11.3 11.3 0 002.6.3zM247.3 41.3a9.2 9.2 0 001 4.7 3.7 3.7 0 003.5 1.6h3a1 1 0 011.3 1.2v.8a1 1 0 01-1.3 1.2h-3.3a8.3 8.3 0 01-3.6-.7 6 6 0 01-2.4-2 8.1 8.1 0 01-1.2-3 17.8 17.8 0 01-.4-3.7V25h-4.3a1 1 0 01-1.3-1.2V23a1 1 0 011.3-1.2h4.3v-9.4a1 1 0 011.3-1.2h1a1 1 0 011.2 1.2v9.4h7a1 1 0 011.1 1.2v.8a1 1 0 01-1.2 1.2h-7zM258.1 34a18.6 18.6 0 011.2-5.1 12.8 12.8 0 012.4-4 10.9 10.9 0 013.7-2.7 12.3 12.3 0 015-1q5.8 0 9 3.9t3.3 10.5v.9a1.1 1.1 0 01-.4.9 1.3 1.3 0 01-.9.3h-19.9v.6a11.6 11.6 0 00.7 3.7A10.7 10.7 0 00264 45a8.7 8.7 0 002.8 2.2 7.8 7.8 0 003.6.9 9.8 9.8 0 003.1-.5 10.9 10.9 0 002.3-1 7.9 7.9 0 001.5-1.2 7.7 7.7 0 00.8-1 2.6 2.6 0 01.8-.8 2.2 2.2 0 011-.1h.8a1.3 1.3 0 01.9.3.9.9 0 01.3.8 4.3 4.3 0 01-.9 2 9.3 9.3 0 01-2.3 2.1 14.3 14.3 0 01-3.6 1.8 14.1 14.1 0 01-4.7.8 12.2 12.2 0 01-4.9-1 10.6 10.6 0 01-3.8-2.5 13 13 0 01-2.4-4.1 18.5 18.5 0 01-1.2-5.2v-2.3-2.2zm3.4.6h17.8v-.2a12 12 0 00-.6-4 9.5 9.5 0 00-1.8-3 8.1 8.1 0 00-2.8-2.2 9 9 0 00-3.7-.7 8.8 8.8 0 00-3.8.7 8.3 8.3 0 00-2.8 2.1 9 9 0 00-1.7 3.2 12.6 12.6 0 00-.6 3.9zM329.6 11.8a1.4 1.4 0 011.1.4 1.4 1.4 0 01.5 1v4a1.5 1.5 0 01-1.6 1.6h-17.8v10.8h16.7A1.5 1.5 0 01330 31v4a1.4 1.4 0 01-.4 1 1.4 1.4 0 01-1 .5h-16.8v12.7a1.5 1.5 0 01-.4 1 1.4 1.4 0 01-1 .5h-4.6a1.5 1.5 0 01-1.5-1.5v-36a1.5 1.5 0 011.5-1.6zM342.1 49.3a1.5 1.5 0 01-1.5 1.5h-4.2a1.4 1.4 0 01-1-.4 1.4 1.4 0 01-.5-1V12.6a1.4 1.4 0 01.4-1 1.4 1.4 0 011.1-.5h4.2a1.5 1.5 0 011.5 1.5zM348.8 29a7.7 7.7 0 011-2.5A9.4 9.4 0 01352 24a12.3 12.3 0 013.7-2 14.9 14.9 0 015-.8 16.1 16.1 0 015.1.8 11 11 0 014 2.2 9.6 9.6 0 012.5 3.7 13.5 13.5 0 01.9 5v16.4a1.5 1.5 0 01-.5 1 1.4 1.4 0 01-1 .5h-4.3a1.5 1.5 0 01-1.5-1.5v-1.8a9.4 9.4 0 01-3.3 2.7 12.2 12.2 0 01-5.7 1.2 13.3 13.3 0 01-4.3-.6 9 9 0 01-3.2-1.9 8.4 8.4 0 01-2-2.7 8.7 8.7 0 01-.6-3.5 7.3 7.3 0 012.7-6 16 16 0 017.3-3l9.1-1.6a3.5 3.5 0 00-1.5-3.2 7 7 0 00-3.7-1 5 5 0 00-2.2.4 6.7 6.7 0 00-1.5 1 3.2 3.2 0 01-1 .7 2.5 2.5 0 01-.9.2H350a1.4 1.4 0 01-1-.4.8.8 0 01-.1-.8zm9.3 15.7a9.8 9.8 0 003.3-.5 7.5 7.5 0 002.5-1.4 6 6 0 001.5-2 5.5 5.5 0 00.5-2.3v-.6l-7.5 1.4a7.7 7.7 0 00-3.3 1.1 2.4 2.4 0 00-1 2 1.8 1.8 0 001.2 1.8 6.5 6.5 0 002.8.5zM395.3 42.5a1.4 1.4 0 00-.4-1 3.7 3.7 0 00-1.3-.7 25 25 0 00-2.7-.7l-4-.9a17.6 17.6 0 01-4.1-1.4 8.6 8.6 0 01-2.6-2 6.2 6.2 0 01-1.4-2.5 11.7 11.7 0 01-.4-3 7.5 7.5 0 01.7-3.4 8.7 8.7 0 012.3-2.8 12 12 0 013.6-2 14 14 0 014.9-.8 17.7 17.7 0 014.8.6 12.9 12.9 0 013.7 1.6 8 8 0 012.4 2.3 6 6 0 011 2.6 1.3 1.3 0 01-.5 1.1 1.6 1.6 0 01-1 .4h-4.4a2.2 2.2 0 01-1.2-.2l-1-.7a4.8 4.8 0 00-1.3-.7 7.9 7.9 0 00-2.5-.3 8 8 0 00-3 .5 1.8 1.8 0 00-1.3 1.8 1.7 1.7 0 00.3 1 2.6 2.6 0 001.2.7 21.4 21.4 0 002.4.7l4 .9c3.3.7 5.7 1.8 7 3.3a8 8 0 012 5.6 7 7 0 01-.8 3.3 9 9 0 01-2.5 2.9 12.4 12.4 0 01-3.9 2 17 17 0 01-5.2.7 17.8 17.8 0 01-5.2-.7A13.2 13.2 0 01381 49a8.5 8.5 0 01-2.4-2.5 5.7 5.7 0 01-1-2.8 1.2 1.2 0 01.5-1 1.5 1.5 0 011-.5h4.4a1.8 1.8 0 011.2.4l1 1a4.9 4.9 0 001.5.8 7.9 7.9 0 002.8.4 13 13 0 001.7-.1 8.3 8.3 0 001.7-.4 3.8 3.8 0 001.2-.6 1.3 1.3 0 00.6-1zM413.6 39.7v9.6a1.4 1.4 0 01-.5 1 1.4 1.4 0 01-1 .5h-4.3a1.5 1.5 0 01-1.5-1.5V12.7a1.5 1.5 0 011.5-1.5h4.2a1.4 1.4 0 011.1.4 1.4 1.4 0 01.5 1.1v17.6l9.3-7.6a7.3 7.3 0 01.9-.6 2.3 2.3 0 011.3-.3h5.6a1.3 1.3 0 011.4 1.3 1.6 1.6 0 01-.1.6 1.4 1.4 0 01-.5.6l-13 10.5 14.3 13.6a2.5 2.5 0 01.4.6 1.2 1.2 0 01.1.5 1.3 1.3 0 01-.4 1 1.3 1.3 0 01-1 .3h-5.3a2.9 2.9 0 01-1.5-.3 4.1 4.1 0 01-.8-.6z"/>
</svg>
