<svg xmlns="http://www.w3.org/2000/svg" viewBox="0 0 439.5 43.3">
  <defs>
    <style>
      .a{fill:#333333}
    </style>
  </defs>
  <path class="a" d="M14.9 0a17.5 17.5 0 015.9 1 12.2 12.2 0 014.6 2.8 13.4 13.4 0 013 4.8 20.6 20.6 0 011.2 6.8v9.4q-.3 8-4.1 11.7l3.6 5v.2a1 1 0 01.1.4 1.2 1.2 0 01-1 1.1h-1.3a1.4 1.4 0 01-1-.4 14 14 0 01-.8-.8l-2.4-3.4a17.8 17.8 0 01-7.9 1.6q-7 0-10.7-3.8t-4-11.6L0 20l.1-4.7a21 21 0 011.2-6.8 13.5 13.5 0 013-4.8A12.2 12.2 0 018.9.9a17.3 17.3 0 016-.9zm0 3.4a13.3 13.3 0 00-4.4.6A9.1 9.1 0 007 6.3 10.4 10.4 0 004.6 10a17.8 17.8 0 00-1 5.6v8.8a17.6 17.6 0 001 5.6A10.6 10.6 0 007 34a9 9 0 003.4 2.3 13.2 13.2 0 004.5.7 13.2 13.2 0 004.4-.7 8.9 8.9 0 003.5-2.2A10.7 10.7 0 0025 30a18 18 0 001-5.6V18v-2.3a18.1 18.1 0 00-1-5.6 10.5 10.5 0 00-2.4-3.8A9.1 9.1 0 0019.2 4a13.4 13.4 0 00-4.4-.7zM35.4 11.8a1 1 0 011.2-1.2h1a1 1 0 011.2 1.2v15.6q0 9.6 8.3 9.6a8.4 8.4 0 006.4-2.6 9.9 9.9 0 002.4-7V11.8a1 1 0 011.2-1.2h1a1 1 0 011.2 1.2v26.6a1 1 0 01-1.2 1.2h-1a1 1 0 01-1.2-1.2v-2.6a12.3 12.3 0 01-3.7 3.2 11.3 11.3 0 01-5.7 1.2 11.9 11.9 0 01-5-1 9.6 9.6 0 01-3.4-2.7 10.8 10.8 0 01-2-4 17.9 17.9 0 01-.8-5zM70 3.4a1.2 1.2 0 01-.3.9 1.3 1.3 0 01-1 .3h-2a1 1 0 01-1.3-1.2V1.3a1.3 1.3 0 01.4-1 1.1 1.1 0 01.9-.3h2a1.2 1.2 0 011.4 1.3zm-.5 35a1 1 0 01-1.3 1.2h-1a1 1 0 01-1.2-1.2V11.8a1 1 0 011.2-1.2h1a1 1 0 011.3 1.2zM96.9 36.4a1 1 0 011.2 1.2v.8a1 1 0 01-1.2 1.2H76.4a1 1 0 01-1.2-1.2v-1a1.6 1.6 0 01.3-.8l.5-.9 16.4-21.9H77a1 1 0 01-1.2-1.2v-.8a1 1 0 011.2-1.2h18.8a1 1 0 011.2 1.2v1a1.6 1.6 0 01-.3.9l-.5.9-16.3 21.8zM136.6 36.3a1.1 1.1 0 011.3 1.3v.8c0 .8-.4 1.2-1.3 1.2h-22.2a1 1 0 01-1.3-1.2V1.8c0-.8.5-1.2 1.3-1.2h21.8a1.1 1.1 0 011.2 1.2v.9c0 .8-.4 1.2-1.2 1.2h-19.5v14.3h18.2a1.1 1.1 0 011.3 1.3v.8c0 .8-.4 1.2-1.2 1.2h-18.3v14.8zM153.2 27.5l-8.8 11.3-.6.6a1.1 1.1 0 01-.8.2h-1.1a1.2 1.2 0 01-1.2-1 1.6 1.6 0 01.1-.5 2.7 2.7 0 01.4-.7l9.8-12.6-9.3-12a2.4 2.4 0 01-.4-.6 1.4 1.4 0 010-.5 1 1 0 01.3-.8 1 1 0 01.8-.3h1.1a1.2 1.2 0 01.9.3l.5.5 8.4 10.8 8.3-10.7.6-.6a1 1 0 01.8-.3h1.2a1 1 0 01.7.3 1 1 0 01.4.8 1.4 1.4 0 01-.1.5 2.4 2.4 0 01-.4.6L155.4 25l9.8 12.4a2.7 2.7 0 01.4.7 1.6 1.6 0 010 .4 1.2 1.2 0 01-1 1.1h-1.2a1.3 1.3 0 01-.9-.2 5.5 5.5 0 01-.5-.6zM177.8 30a9.2 9.2 0 001 4.7 3.7 3.7 0 003.5 1.7h3a1 1 0 011.2 1.2v.8a1 1 0 01-1.2 1.2H182a8.1 8.1 0 01-3.7-.7 6 6 0 01-2.3-2 8 8 0 01-1.3-3 17.6 17.6 0 01-.3-3.6V13.8H170a1 1 0 01-1.2-1.2v-.8a1 1 0 011.2-1.2h4.4V1.2a1 1 0 011.2-1.2h1a1 1 0 011.2 1.2v9.4h6.9a1 1 0 011.2 1.2v.8a1 1 0 01-1.2 1.2h-7zM189.7 22.9a18.5 18.5 0 011.1-5.2 12.8 12.8 0 012.5-4A10.7 10.7 0 01197 11a12 12 0 014.9-1q5.9 0 9.1 3.8t3.2 10.6v.8a1.1 1.1 0 01-.3 1 1.3 1.3 0 01-1 .3h-19.8v.5a11.9 11.9 0 00.7 3.7 10.7 10.7 0 001.7 3.2 8.6 8.6 0 002.8 2.2 7.7 7.7 0 003.6.8 9.8 9.8 0 003.1-.4 10.6 10.6 0 002.3-1 7.8 7.8 0 001.5-1.2 8.5 8.5 0 00.9-1 2.9 2.9 0 01.7-1 2.2 2.2 0 011 0h.8a1.3 1.3 0 01.9.3.9.9 0 01.3.8 4.4 4.4 0 01-.9 2 9.4 9.4 0 01-2.3 2.2 14 14 0 01-3.6 1.8 14 14 0 01-4.7.8 12.4 12.4 0 01-4.9-1 10.7 10.7 0 01-3.7-2.6 12.7 12.7 0 01-2.5-4 18.6 18.6 0 01-1.1-5.3v-2.2-2.3zm3.4.5h17.7v-.2a12 12 0 00-.6-3.9 9.6 9.6 0 00-1.7-3.1 8 8 0 00-2.9-2.1 9.1 9.1 0 00-3.7-.8 8.8 8.8 0 00-3.7.8 8 8 0 00-2.8 2 9.2 9.2 0 00-1.8 3.2 12.6 12.6 0 00-.5 3.9zM242.4 38.4a1 1 0 01-1.2 1.2h-1a1 1 0 01-1.2-1.2V22.8a10.4 10.4 0 00-2.2-7 8 8 0 00-6.4-2.5 8.4 8.4 0 00-6.4 2.5 9.8 9.8 0 00-2.4 7v15.6a1 1 0 01-1.2 1.2h-1a1 1 0 01-1.2-1.2V11.8a1 1 0 011.2-1.2h1a1 1 0 011.2 1.2v2.7a12.2 12.2 0 013.6-3.2A11.4 11.4 0 01231 10a12 12 0 015 1 9.7 9.7 0 013.5 2.6 11.3 11.3 0 012.2 4 16.2 16.2 0 01.7 5zM267 31.9a3.7 3.7 0 00-.5-2 4.3 4.3 0 00-1.5-1.4 12.8 12.8 0 00-3-1.2 80 80 0 00-4.4-1.2 21 21 0 01-4.3-1.4 8.6 8.6 0 01-2.7-1.8 5.5 5.5 0 01-1.2-2.2 9.5 9.5 0 01-.4-2.6 7.4 7.4 0 01.6-2.9 7.5 7.5 0 012-2.6 10 10 0 013-1.8 12.2 12.2 0 014.4-.8 13.4 13.4 0 014.7.8 11.4 11.4 0 013.2 1.7 7.7 7.7 0 011.8 2 4.6 4.6 0 01.6 1.6 1 1 0 01-.3 1 1.3 1.3 0 01-1 .3h-.8a1.4 1.4 0 01-1.2-.7 13.3 13.3 0 00-1-1.3 5 5 0 00-1.2-1.1 6.8 6.8 0 00-2-.8 12.5 12.5 0 00-2.8-.3 7.6 7.6 0 00-5 1.4 4.4 4.4 0 00-1.6 3.6 4 4 0 00.4 1.7 3.5 3.5 0 001.2 1.3 11.8 11.8 0 002.6 1.2l4.4 1.2a26.8 26.8 0 014.5 1.3 10.5 10.5 0 012.9 1.8 6 6 0 011.5 2.3 8.1 8.1 0 01.5 2.9 7.3 7.3 0 01-.7 3.2 7.8 7.8 0 01-2.2 2.6 10.5 10.5 0 01-3.4 1.8 15.7 15.7 0 01-4.8.7 14.2 14.2 0 01-5-.8 12.5 12.5 0 01-3.5-1.8 8 8 0 01-2-2.2 4.6 4.6 0 01-.7-1.6 1 1 0 01.4-1 1.5 1.5 0 01.9-.2h.8a1.5 1.5 0 01.6 0 2.3 2.3 0 01.6.7 9.4 9.4 0 001.2 1.4 6.8 6.8 0 001.6 1.1 8.6 8.6 0 002.2.9 11.8 11.8 0 002.9.3 10.8 10.8 0 005.5-1.3 4.2 4.2 0 002.2-3.8zM279.4 3.4a1.1 1.1 0 01-.4.9 1.3 1.3 0 01-1 .3h-2a1 1 0 01-1.3-1.2V1.3a1.3 1.3 0 01.4-1 1.1 1.1 0 01.9-.3h2a1.3 1.3 0 011 .4 1.2 1.2 0 01.4.9zm-.6 35a1 1 0 01-1.3 1.2h-1a1 1 0 01-1.1-1.2V11.8a1 1 0 011.2-1.2h1a1 1 0 011.2 1.2zM295.5 10a13.5 13.5 0 015.3 1 11 11 0 013.8 2.7 11.8 11.8 0 012.4 4 17.8 17.8 0 01.9 5v4.7a17.7 17.7 0 01-1 5 11.6 11.6 0 01-2.3 4 10.7 10.7 0 01-3.8 2.8 14.8 14.8 0 01-10.6 0 10.7 10.7 0 01-3.8-2.7 12 12 0 01-2.4-4 15.6 15.6 0 01-.9-5v-1-1.3V24v-1.1a15.6 15.6 0 01.9-5 12.2 12.2 0 012.4-4.2 11 11 0 013.8-2.7 13.4 13.4 0 015.3-1zm9 13q-.2-4.7-2.6-7.2a9.4 9.4 0 00-12.8 0q-2.4 2.5-2.6 7.3v4q.2 4.9 2.6 7.4a9.4 9.4 0 0012.7 0q2.5-2.5 2.7-7.3v-2V23zM337.5 38.4a1 1 0 01-1.2 1.2h-1a1 1 0 01-1.2-1.2V22.8a10.4 10.4 0 00-2.1-7 7.9 7.9 0 00-6.4-2.5 8.4 8.4 0 00-6.4 2.5 9.8 9.8 0 00-2.4 7v15.6a1 1 0 01-1.3 1.2h-.9a1 1 0 01-1.2-1.2V11.8a1 1 0 011.2-1.2h1a1 1 0 011.2 1.2v2.7a12.2 12.2 0 013.6-3.2A11.5 11.5 0 01326 10a12 12 0 015 .9 9.8 9.8 0 013.6 2.6 11.3 11.3 0 012.1 4 16.5 16.5 0 01.7 5zM361 31.9a3.7 3.7 0 00-.5-2 4.3 4.3 0 00-1.6-1.4 13 13 0 00-2.9-1.2 80 80 0 00-4.4-1.2 21 21 0 01-4.4-1.4 8.6 8.6 0 01-2.6-1.8 5.5 5.5 0 01-1.2-2.2 9.5 9.5 0 01-.4-2.6 7.4 7.4 0 01.7-2.9 7.5 7.5 0 011.8-2.6 10 10 0 013.2-1.8 12.2 12.2 0 014.3-.8 13.3 13.3 0 014.7.8 11.3 11.3 0 013.2 1.7 7.4 7.4 0 011.8 2 4.6 4.6 0 01.6 1.6 1 1 0 01-.3 1 1.3 1.3 0 01-1 .3h-.8a1.4 1.4 0 01-1.2-.7 15.2 15.2 0 00-1-1.3 5 5 0 00-1.2-1.1 6.9 6.9 0 00-2-.8 12.5 12.5 0 00-2.8-.3 7.6 7.6 0 00-5 1.4 4.4 4.4 0 00-1.6 3.6 4 4 0 00.3 1.7 3.5 3.5 0 001.3 1.3 11.8 11.8 0 002.6 1.2l4.3 1.2a26.8 26.8 0 014.5 1.3 10.3 10.3 0 013 1.8 6 6 0 011.5 2.3 8.3 8.3 0 01.5 2.9 7.3 7.3 0 01-.7 3.2 7.9 7.9 0 01-2.2 2.6 10.6 10.6 0 01-3.4 1.8 15.8 15.8 0 01-4.8.7 14.2 14.2 0 01-5-.8 12.5 12.5 0 01-3.5-1.8 8 8 0 01-2-2.2 4.6 4.6 0 01-.7-1.6 1 1 0 01.4-1 1.5 1.5 0 01.9-.2h.8a1.5 1.5 0 01.6 0 2.3 2.3 0 01.6.7 9.4 9.4 0 001.2 1.4 6.4 6.4 0 001.6 1.1 8.6 8.6 0 002.2.9 11.8 11.8 0 002.9.3 10.8 10.8 0 005.5-1.3 4.2 4.2 0 002.2-3.8zM405 32.7a1.5 1.5 0 011.5 1.5v4a1.4 1.4 0 01-.4 1 1.4 1.4 0 01-1 .5h-24.5a1.4 1.4 0 01-1.1-.5 1.4 1.4 0 01-.4-1V2a1.5 1.5 0 011.5-1.5h4.5a1.5 1.5 0 011.5 1.5v30.6zM428.3.6a1.5 1.5 0 011.4 1.5v4a1.5 1.5 0 01-1.4 1.5h-10.1v30.6a1.4 1.4 0 01-.5 1 1.4 1.4 0 01-1 .5h-4.5a1.5 1.5 0 01-1.5-1.5V7.5h-10A1.5 1.5 0 01399 6V2a1.5 1.5 0 011.5-1.5zM433.5 39.6a1.5 1.5 0 01-1.5-1.5v-36a1.5 1.5 0 01.4-1.1 1.4 1.4 0 011-.4h4.6a1.5 1.5 0 011.5 1.5v36a1.4 1.4 0 01-.4 1.1 1.4 1.4 0 01-1 .5z"/>
</svg>
