<svg xmlns="http://www.w3.org/2000/svg" width="447.134" height="447.406">
	<title>UCF Library Illustration - created by Ian Turgeon</title>
	<circle cx="223.635" cy="223.635" r="223.635" fill="#fec722" data-name="Layer 5"/><g data-name="Layer 1"><path d="M444.424 195.518a28.147 28.147 0 0 0-11.765 3.507c-1.831-6.183-8.787-10.786-17.095-10.786a20.018 20.018 0 0 0-12.245 3.97 16.194 16.194 0 0 0-3.498-.38c-7.22 0-13.073 4.671-13.073 10.433a8.456 8.456 0 0 0 .484 2.804h59.902q-1.23-4.812-2.71-9.548z" fill="#fff"/><circle cx="226.995" cy="181.489" r="140.75" fill="#fe0"/><circle cx="226.995" cy="181.489" r="116.982" fill="#ffca06"/><circle cx="226.995" cy="181.489" r="90.887" fill="#f2991f"/><path d="M390.066 105.74a24.7 24.7 0 0 0-27.154-18.803 34.743 34.743 0 0 0-61.51-13.563 21.75 21.75 0 0 0-27.023 32.365z" fill="#fff"/><path d="M432.976 303.58c-49.56-27.993-124.625-45.84-208.65-45.84-84.707 0-160.298 18.143-209.842 46.53 31.878 83.56 113.471 142.999 209.114 142.999 95.906 0 177.688-59.765 209.378-143.688z" fill="#72bf44"/><path d="M94.412 290.078a16.202 16.202 0 0 0-8.543 3.743c-1.058-3.093-4.737-5.113-8.85-4.636-4.61.535-7.997 3.998-7.564 7.734a5.565 5.565 0 0 0 .292 1.196 14.086 14.086 0 0 0-1.62.95 17.415 17.415 0 0 0-3.751-.683c-.007-.116.016-.23.002-.347-.433-3.736-4.522-6.33-9.133-5.796-3.69.428-6.56 2.741-7.35 5.56a13.764 13.764 0 0 0-4.56-.223 11.947 11.947 0 0 0-9.509 6.201 9.03 9.03 0 0 0-6.564-1.698c-3.999.464-7.047 3.175-7.407 6.33a9.097 9.097 0 0 0-2.416-1.552q2.234 5.704 4.776 11.247l72.197-12.543zm-59.835 23.067c-.126-.09-.233-.196-.363-.282.131-.128.248-.263.368-.398.003.228-.03.45-.005.68z" fill="#72bf44"/><path d="M92.179 273.604a14.804 14.804 0 0 0-7.264-.622 16.035 16.035 0 0 0-1.595.364 27.731 27.731 0 0 0-17.293-2.749 27.017 27.017 0 0 0-14.638 7.002 15.127 15.127 0 0 0-8.106 5.216 12.388 12.388 0 0 0-11.435-4.109 11.712 11.712 0 0 0-9.636 7.899 31.116 31.116 0 0 0-4.95.365 30.239 30.239 0 0 0-5.817 1.498 10.494 10.494 0 0 0-1.77-1.657 218.565 218.565 0 0 0 10.344 28.496l72.16-12.186z" fill="#006838"/><path d="M92.179 278.607a10.53 10.53 0 0 0-3.116-.116 9.793 9.793 0 0 0-6.534 3.438 8.653 8.653 0 0 0-6.7-1.91 9.138 9.138 0 0 0-4.667 1.913 7.455 7.455 0 0 0-5.593-1.52c-3.498.403-6.093 2.875-6.136 5.66a17.02 17.02 0 0 0-2.517.085 16.646 16.646 0 0 0-5.059 1.417c-1.452-2.607-4.853-4.229-8.63-3.793-4.725.546-8.195 4.075-7.75 7.883a5.595 5.595 0 0 0 .243.991 19.327 19.327 0 0 0-8.692 5.316 10.96 10.96 0 0 0-8.432-2.381 11.676 11.676 0 0 0-5.5 2.092q3.335 9.72 7.536 19.018l71.547-12.324z" fill="#0ea54a"/><path d="M91.744 290.39a15.886 15.886 0 0 0-6.876 3.43c-1.058-3.092-4.737-5.112-8.85-4.635-4.61.535-7.997 3.998-7.563 7.734a5.565 5.565 0 0 0 .292 1.196 14.086 14.086 0 0 0-1.621.95 17.415 17.415 0 0 0-3.751-.683c-.006-.116.016-.23.003-.347-.434-3.736-4.523-6.33-9.134-5.796-3.69.428-6.56 2.741-7.35 5.56a13.764 13.764 0 0 0-4.559-.223 11.947 11.947 0 0 0-9.51 6.201 9.03 9.03 0 0 0-6.564-1.698c-3.999.464-7.047 3.175-7.407 6.33a9.097 9.097 0 0 0-2.416-1.552q2.235 5.704 4.776 11.247l70.53-12.254zm-58.168 22.755c-.126-.09-.233-.196-.363-.282.131-.128.248-.263.369-.398.002.228-.03.45-.006.68z" fill="#72bf44"/><path d="M388.468 301.611c.785-10.3.874-17.367.952-23.65.075-6.015.138-11.21.824-17.726 4.805-29.664 7.46-45.174 7.486-45.327l-1.97-.338c-.027.154-2.684 15.67-7.497 45.4-.703 6.664-.768 11.902-.843 17.966-.078 6.26-.166 13.302-.95 23.578q1.006.028 1.998.097z" fill="#594d34"/><g fill="#30b44a"><path d="M389.682 194.017c11.684 1.537 15.87 9.441 13.757 14.124a44.84 44.84 0 0 1-5.811 9.042l-5.808.015s5.403-12.125 2.799-16.094-4.937-7.087-4.937-7.087z"/><path d="M371.958 201.775c4.257.406 4.496.763 11.343 3.56s4.619 6.56 7.08 8.94 13.24 3.892 8.165-5.103-14.468-10.948-19.891-9.567-2.45.688-6.697 2.17z"/><path d="M398.038 213.683a42.34 42.34 0 0 0-7.531-1.677c-2.724-.159-11.374-.364-18.057 4.891-1.862 1.464-3.58 5.967-3.58 5.967s3.887-3.972 14.678-3.223c7.489.52 14.49-5.958 14.49-5.958z"/><path d="M396.441 215.065c-6.877 3.166-12.51 6.924-12.497 11.092s1.022 5.216 1.022 5.216a31.434 31.434 0 0 1 5.453-6.611c3.225-2.85 6.022-9.697 6.022-9.697zM398.126 213.697c3.708-1.977 5.498-5.062 11.613-4.465s15.396 5.871 15.396 5.871a28.226 28.226 0 0 0-10.322 1.657c-5.811 2.004-5.216 1.022-9.172.204a23.703 23.703 0 0 1-7.515-3.267z"/><path d="M398.13 213.558s8.979-.993 16.337 4.779 4.061 17.295 4.061 17.295a24.093 24.093 0 0 0-11.769-11.957c-8.853-4.21-8.63-10.117-8.63-10.117z"/><path d="M398.089 213.646s9.517 5.551 10.967 13.3-5.512 13.404-5.512 13.404 4.18-6.557-2.388-13.255-3.067-13.449-3.067-13.449z"/><path d="M397.85 214.013c-6.02 2.364-7.958 8.155-8.846 13.453s4.178 10.343 4.178 10.343-1.853-7.785.417-10.593 4.25-13.203 4.25-13.203z"/></g><path d="M422.5 280.912a23.8 23.8 0 0 0-12.561 1.566 15.77 15.77 0 0 0-8.431-3.9c-.391-.056-.78-.087-1.17-.117-.796-4.184-4.502-7.647-9.626-8.395a13.177 13.177 0 0 0-11.977 4.347 26.252 26.252 0 0 0-5.521-1.423 27.768 27.768 0 0 0-4.747-.28 10.269 10.269 0 0 0-6.21-7.19v35.467l67.401 10.884a217.8 217.8 0 0 0 7.759-21.277c-2.755-4.95-8.134-8.693-14.917-9.682z" fill="#006838"/><path d="M426.834 291.94a10.861 10.861 0 0 0-9.327 3.541 17.452 17.452 0 0 0-12.953-7.742 9.705 9.705 0 0 0-5.265-2.189 10.7 10.7 0 0 0-5.368.821 6.69 6.69 0 0 0-5.603-3.86 7.317 7.317 0 0 0-7.564 4.06 7.162 7.162 0 0 0-4.38-2.04 7.882 7.882 0 0 0-5.324 1.354c-.206-.156-.43-.296-.644-.444.663-4.507-2.952-8.58-8.15-9.163v27.297l66.606 10.124q3.375-7.741 6.166-15.776a9.44 9.44 0 0 0-8.194-5.983z" fill="#30b44a"/><path d="M427.03 305.546a12.336 12.336 0 0 0-3.397.158 6.647 6.647 0 0 0-5.702-4.09c-3.577-.372-6.866 1.673-7.736 4.64a12.714 12.714 0 0 0-4.424-1.283 13.435 13.435 0 0 0-4.143.242 10.565 10.565 0 0 0-4.88-3.898 6.097 6.097 0 0 0 .645-1.832c.595-3.69-2.38-7.04-6.644-7.482a8.668 8.668 0 0 0-6.368 1.869 16.036 16.036 0 0 0-10.249-4.952 17.771 17.771 0 0 0-11.689 2.826c-.06-.014-.126-.026-.186-.04V305.6l65.963 9.553a218.108 218.108 0 0 0 3.43-8.122 11.561 11.561 0 0 0-4.62-1.484z" fill="#72bf44"/><path fill="#9f512d" d="M90.725 326.808l-5.418-151.715h287.729l-1.745 34.709 5.85 7.193-2.206 64.54-5.693-.196-1.655 46.318-276.862-.849z"/><path d="M43.516 183.566a1833.002 1833.002 0 0 1 42.666 16.048l-.25-12.562a1437.688 1437.688 0 0 1 286.375.375l-.562 12.843c11.502-5.716 23.118-11.264 34.597-16.704q-10.473-25.738-20.96-51.321a1447.44 1447.44 0 0 0-316.64-.47q-12.623 25.784-25.226 51.79z" fill="#a6a8ab"/><path fill="#af6654" d="M372.432 186.177l-1.141 23.625 5.85 7.193-2.206 64.54-5.693-.196-1.655 46.318-32.067-.138 1.521-48.762 4.751.31 1.4-64.278-3.968-6.574 1.333-25.038M299.078 180.489l-.767 25.094 2.11 7-.287 63.677-3.049-.109-.835 51.08h31.215l1.447-48.75 2.868-.015 1.439-64.105-2.206-7.052.899-24.653M253.527 293.426l.053-20.905.618-.001.479-61.567-.959-6.905.11-25.059 36.667 1.167-.527 25.139 1.247 6.713v63.198l-2.315.099-.85 51.638"/><g fill="#e6e7e8"><path d="M406.753 183.022a1464.502 1464.502 0 0 0-362.842 0q2.663-7.906 5.327-15.802v-24.058q-3.73-6.676-7.457-13.334a1464.5 1464.5 0 0 1 367.102 0q-3.727 6.658-7.457 13.334v24.058q2.664 7.896 5.327 15.802z"/><path d="M406.753 183.022a1464.502 1464.502 0 0 0-362.842 0q2.663-7.906 5.327-15.802v-24.058q-3.73-6.676-7.457-13.334a1464.5 1464.5 0 0 1 367.102 0q-3.727 6.658-7.457 13.334v24.058q2.664 7.896 5.327 15.802z"/></g><g fill="#5a4d34"><path d="M327.41 135.283q-7.994-.582-15.992-1.074v26.085q7.998.49 15.992 1.073zM254.18 131.869q-8.01-.165-16.02-.243v26.084q8.01.074 16.02.243zM363.956 138.423q-7.979-.79-15.963-1.495v26.085q7.985.698 15.963 1.494zM382.205 140.346q-7.97-.894-15.947-1.696v26.084q7.977.803 15.947 1.696zM272.499 132.364q-8.007-.27-16.017-.45v26.084q8.01.179 16.017.45zM309.116 134.074q-8-.478-16.003-.87v26.085q8.004.387 16.003.87zM290.812 133.093q-8.004-.374-16.011-.648v26.085q8.006.282 16.01.647zM345.69 136.728q-7.986-.686-15.979-1.273v26.084q7.993.595 15.98 1.274zM235.858 131.601q-8.01-.06-16.021-.02v26.084q8.01-.03 16.02.02zM217.535 131.59q-8.012.042-16.022.172v26.085q8.01-.134 16.022-.173zM102.315 136.926q-7.985.698-15.963 1.494v26.085q7.978-.79 15.963-1.495zM84.05 138.647q-7.976.802-15.945 1.695v26.085q7.969-.893 15.945-1.696zM121.286 135.402s-11.385.87-16.67 1.324v26.084c5.499-.472 17.313-1.371 17.313-1.371zM52.578 142.473v26.085q6.61-.979 13.225-1.868v-26.084q-6.615.892-13.225 1.867zM397.85 142.514q-6.668-1-13.344-1.905v26.085q6.675.91 13.343 1.905zM199.211 131.808c-4.45.081-13.348.308-13.348.308l.002 26.085s8.897-.227 13.346-.309z"/></g><path d="M199.828 118.49l-.02-12.813s-17.96-15.11-26.868-21.469c-6.648-3.58-10.692-8.02-29.404-8.02s-20.85 8.02-20.85 8.02l7.485 257.865s-1.217 6.879 18.634 6.879 28.412-6.879 28.412-6.879l23.523-14.969-.995-146.74-18.313-8 1.131-13.845v-25.126l-1.193-14.446z" fill="#af6654"/><path d="M122.662 83.072l.216 8.251s4.17-8.218 20.85-8.019 26.88 6.537 29.404 8.02 26.73 21.384 26.73 21.384v-8.554s-24.076-19.433-26.73-21.384-11.56-8.333-29.404-8.02-21.066 8.322-21.066 8.322z" fill="#e6e7e8"/><path fill="#af6654" d="M209.509 177.945l-.096 112.106 35.099 1.438.959-112.969"/><path fill="#fff" d="M291.557 244.253l-.155 30.473-35.653-1.438.144-30.258 35.664 1.223zM376.43 250.293l-1.136 30.761-32.011-2.011 1.136-30.833 32.011 2.083zM332.48 247.301l-.55 30.734-30.149-2.014.123-30.905 30.576 2.185z"/><path fill="#5a4d34" d="M255.244 180.507l-.388 23.708 1.055 7.001 34.001.981-1.25-7 .625-23.562-34.043-1.128zM300.608 182.1l-.946 23.972 2.25 6.584 30.223 1.666-2.301-7.288 1.203-23.066-30.429-1.868z"/><path fill="#594d34" d="M341.541 184.637l-1.185 23.343 4.264 6.884 31 2.063-5.625-7.063 1.072-22.567-29.526-2.66z"/><path d="M244.992 244.135s-3.836-9.782-17.646-9.782-18.029 9.069-18.029 9.069l.192 30.775 35.099.459z" fill="#5a4d34"/><path fill="#6d6e70" d="M177.578 288.906l53.796-2.96 49.288 2.876-17.929 7.194-68.184.287-16.971-7.397z"/><g fill="#e6e7e8"><path d="M280.824 288.823q-51.596-2.433-103.25 0v-15.535q51.597-2.434 103.25 0z"/><path d="M280.824 288.823q-51.596-2.433-103.25 0v-15.535q51.597-2.434 103.25 0z"/></g><path d="M220.54 346.74l-7.673 33.628c-48.99 1.029-93.71 7.333-129.174 17.235a223.273 223.273 0 0 0 282.302-1.23c-34.474-9.13-77.138-14.94-123.696-15.985l-7.803-33.899z" fill="#f8f3cc"/><path d="M226.625 388.936c-50.602 0-96.84 6.385-132.213 16.925a221.588 221.588 0 0 0 260.083-1.26c-34.776-9.787-79.315-15.665-127.87-15.665z" fill="#00a8e3"/><path d="M209.365 224.934l35.53.287.06 19.173s-3.765-9.235-17.574-9.342-18.094 8.396-18.094 8.396z" fill="#e6e7e8"/><g><ellipse cx="227.315" cy="423.45" rx="50.916" ry="10.048" fill="#008fb6"/><path d="M163.597 425.935c-.306-2.316-8.467-3.146-18.227-1.854a52.539 52.539 0 0 0-13.596 3.408q6.162 2.806 12.525 5.233a74.944 74.944 0 0 0 2.182-.253c9.76-1.292 17.423-4.217 17.116-6.534zM194.76 438.125c-3.239-1.653-7.512.234-9.544 4.215a9.919 9.919 0 0 0-.632 1.548q6.55 1.157 13.234 1.913c.645-3.227-.494-6.366-3.059-7.676zM224.281 440.487c-2.5-1.734-5.578.061-6.875 4.011a11.582 11.582 0 0 0-.528 2.673c2.125.06 4.256.098 6.396.098 1.256 0 2.505-.027 3.756-.048.018-2.848-.982-5.508-2.749-6.734zM258.576 437.378c-2.53 1.292-3.672 4.365-3.083 7.546q6.6-.964 13.07-2.308a9.945 9.945 0 0 0-.444-1.022c-2.032-3.982-6.305-5.869-9.543-4.216zM289.524 425.935c-.278 2.101 6.007 4.699 14.458 6.129q6.957-2.731 13.674-5.92a63.981 63.981 0 0 0-9.905-2.063c-9.76-1.292-17.92-.462-18.227 1.854z" fill="#008fb6"/><path d="M249.241 400.072s-2.63-2.944-8.838 2.238a14.176 14.176 0 0 0-5 10.421" fill="none" stroke="#96d9f7" stroke-linecap="round" stroke-linejoin="round" stroke-width="3"/><path d="M204.032 400.072s2.63-2.944 8.838 2.238a14.176 14.176 0 0 1 5 10.421" fill="none" stroke="#9cdbf8" stroke-linecap="round" stroke-linejoin="round" stroke-width="3"/><path d="M170.35 408.918a23.829 23.829 0 0 1 14.632-8.114c9.548-1.408 17.962 13.12 17.962 13.12" fill="none" stroke="#bee7fa" stroke-linecap="round" stroke-linejoin="round" stroke-width="3"/><path d="M188.522 422.096s-10.808-11.975-25.45-10.089-22.44 15.65-22.44 15.65" fill="none" stroke="#e9f6fd" stroke-linecap="round" stroke-linejoin="round" stroke-width="3"/><path d="M314.174 427.713s-7.77-14.136-22.455-15.663-25.433 10.08-25.433 10.08" fill="none" stroke="#d6effb" stroke-linecap="round" stroke-linejoin="round" stroke-width="3"/><path d="M281 406.598a23.829 23.829 0 0 0-15.658-5.892c-9.651 0-15.856 15.6-15.856 15.6" fill="none" stroke="#c0e7fa" stroke-linecap="round" stroke-linejoin="round" stroke-width="3"/><path d="M249.259 428.118s2.63-4.198 8.838 3.192a21.673 21.673 0 0 1 5.148 12.762" fill="none" stroke="#e9f6fd" stroke-linecap="round" stroke-linejoin="round" stroke-width="3"/><path d="M204.014 428.118s-2.63-4.198-8.838 3.192a21.062 21.062 0 0 0-4.764 13.43" fill="none" stroke="#fff" stroke-linecap="round" stroke-linejoin="round" stroke-width="3"/><path d="M226.901 426.884a4.216 4.216 0 0 1-4.174-4.254l.717-55.511a4.147 4.147 0 0 1 4.155-4.148l.14.002a4.198 4.198 0 0 1 4.109 4.253l-.717 55.51a4.22 4.22 0 0 1-4.2 4.148z" fill="#b2e2f9"/><path d="M227.6 364.97l.074.001a2.203 2.203 0 0 1 2.174 2.23l-.717 55.509a2.203 2.203 0 0 1-2.2 2.173h-.03a2.202 2.202 0 0 1-2.173-2.229l.717-55.51a2.158 2.158 0 0 1 2.154-2.174m0-4a6.13 6.13 0 0 0-6.154 6.122l-.717 55.51a6.211 6.211 0 0 0 6.12 6.281h.053a6.232 6.232 0 0 0 6.23-6.12l.716-55.51a6.212 6.212 0 0 0-6.082-6.28 6.279 6.279 0 0 0-.166-.003z" fill="#008fb6"/><path d="M225.686 430.44s-.733-4.198-2.465 3.192a73.116 73.116 0 0 0-1.476 13.774" fill="none" stroke="#fff" stroke-linecap="round" stroke-linejoin="round" stroke-width="3"/><g><path d="M265.51 374.985c0 .811-2.465-4.74-3.602-4.171-.733.366 3.128 8.153 1.611 9.29-2.68 2.01-9.6-6.43-11.186-4.74-2.358 2.512 1.649 11.567-2.18 13.368-2.566 1.206-10.304-13.784-13.368-12.988-4.097 1.064 1.477 15.671-3.873 15.162-3.5-.334-6.65-19.713-9.305-19.997-3.694-.396-5.514 13.36-8.911 12.798s-1.422-5.404-3.792-6.92c-2.719-1.74-7.946 10.515-10.334 9.006-1.1-.695 2.074-11.268 1.138-12.04-1.263-1.042-5.135 5.049-6.067 3.887-.982-1.224.097-4.45-.474-5.783-.709-1.653-6.068 4.905-6.068 3.128 0-11.99 17.105-21.71 38.206-21.71s38.205 9.72 38.205 21.71z" fill="#64b1d3"/><path d="M227.305 349.24c12.804 0 22.55 4.336 25.434 11.317l.258.626.587.34a22.622 22.622 0 0 1 8.062 7.29 2.372 2.372 0 0 0-.633.212c-1.844.922-1.233 2.76-.309 5.542.303.91.844 2.536 1.071 3.635a25.499 25.499 0 0 1-3.635-2.369c-2.053-1.505-3.675-2.694-5.241-2.694a2.741 2.741 0 0 0-2.024.857c-1.664 1.772-1.415 4.594-1.151 7.58.135 1.54.348 3.943-.081 4.936a45.053 45.053 0 0 1-4.286-5.186c-3.667-4.862-5.862-7.613-8.325-7.613a2.984 2.984 0 0 0-.75.095c-3.52.914-3.415 5.531-3.313 9.996a37.571 37.571 0 0 1-.073 4.46 77.684 77.684 0 0 1-2.946-8.14c-2.446-7.576-3.632-10.936-6.13-11.204a3.456 3.456 0 0 0-.369-.02c-3.146 0-4.692 3.825-6.328 7.875a23.598 23.598 0 0 1-2.35 4.854c-.15-.155-.273-.568-.449-1.787-.217-1.507-.513-3.57-2.342-4.74a3.061 3.061 0 0 0-1.653-.485c-2.379 0-4.3 2.629-6.526 5.672-.3.41-.665.91-1.044 1.41.116-.643.236-1.274.336-1.795.886-4.645 1.253-6.567-.115-7.695a2.516 2.516 0 0 0-1.62-.577c-1.452 0-2.678 1.148-4.061 2.532a6.76 6.76 0 0 0-.294-3.095 2.41 2.41 0 0 0-2.245-1.482 4.783 4.783 0 0 0-2.82 1.245c1.282-3.147 4.008-6.121 7.98-8.64l.447-.284.249-.469c3.864-7.297 14.59-12.2 26.689-12.2m0-2c-13.603 0-24.445 5.688-28.457 13.264-6.06 3.843-9.749 8.917-9.749 14.482 0 .215.079.308.218.308.881 0 4.19-3.706 5.443-3.706a.41.41 0 0 1 .407.27c.57 1.332-.508 4.559.474 5.783a.378.378 0 0 0 .31.148c1.17 0 4.042-4.156 5.41-4.156a.528.528 0 0 1 .347.12c.936.773-2.237 11.346-1.138 12.04a.816.816 0 0 0 .445.13c2.363 0 6.663-9.305 9.314-9.305a1.044 1.044 0 0 1 .575.17c2.37 1.516.396 6.358 3.792 6.92a1.236 1.236 0 0 0 .202.017c3.22 0 5.036-12.824 8.553-12.824a1.466 1.466 0 0 1 .156.009c2.655.284 6.294 19.69 9.138 20.163a2.036 2.036 0 0 0 .334.03c4.094 0-.288-14.321 3.706-15.358a.98.98 0 0 1 .247-.031c3.087 0 10.04 13.088 12.8 13.088a.743.743 0 0 0 .32-.07c3.83-1.8-.177-10.855 2.18-13.367a.74.74 0 0 1 .567-.225c1.99 0 6.833 5.277 9.62 5.277a1.619 1.619 0 0 0 1-.312c1.517-1.137-2.344-8.924-1.611-9.29a.389.389 0 0 1 .176-.041c1.11 0 3.111 4.293 3.393 4.293.022 0 .033-.026.033-.08 0-5.917-4.17-11.277-10.923-15.193-3.199-7.743-13.71-12.554-27.282-12.554z" fill="#b4e2ec"/><path d="M197.12 361.99c-.309.485 3.317-.53 4.125-.126.52.26 1.377 1.317 2.454 2.124 1.903 1.427 4.712-2.268 5.839-1.068 1.673 1.783-.215 3.866 2.504 5.145 1.82.856 6.451-9.856 8.627-9.291 2.908.755.959 6.903 4.266 6.352 2.019-.337 3.11-5.167 4.994-5.37 2.623-.28 3.876 10.699 6.287 10.3s1.05-5.05 2.732-6.127c1.93-1.235 5.72 10.71 7.412 9.634 1.885-1.199-1.549-11.24-.884-11.787.897-.74 5.394 5.338 6.644 3.963 1.89-2.078-.156-3.429.25-4.375.503-1.173 5.893 1.835 5.25.75-5.625-9.5-15.336-14.875-30.315-14.875s-24.31 5.5-30.185 14.75z" fill="#008fb6"/></g></g><path d="M190.422 65.243a31.07 31.07 0 0 0-37.774-28.56 27.08 27.08 0 0 0-45.468 10.494 19.467 19.467 0 0 0-19.25 18.066zM.467 230.009c.668-11.159 10.478-20.014 22.485-20.014a23.91 23.91 0 0 1 4.89.508 20.149 20.149 0 0 1 14.23-5.764 19.543 19.543 0 0 1 18.722 12.931c7.397.059 13.433 5.479 13.951 12.339z" fill="#fff"/></g><g fill="#ffca06" data-name="Layer 2"><path d="M106.632 207.341s2.334-4.283 4.887-5.058c3.098-.941 4.87.333 4.87.333l.793-1.748 1.586 6.505s.257.586-.81 1.375c-1.064.785-1.148.64-1.148.64s-.81-2.654-2.229-2.896c-1.419-.245-1.346 1.619-1.246 2.21.103.593 1.393 2.988 3.364 1.883a9.445 9.445 0 0 0 3.109-2.657s.284-.756.606-.545c.32.21 1.543 1.432 1.543 1.432l-.165 7.84s.037.97-1.277 1.393c-1.315.424-1.318.35-1.318.35l.61-2.413.86-.034-.448-5.502a23.985 23.985 0 0 1-1.88 6.043 23.514 23.514 0 0 1-4.103 5.306 6.593 6.593 0 0 0 1.242-4.505c-.239-1.613-1.017-3.458-4.632-6.212a48.843 48.843 0 0 1-4.214-3.74M111.55 199.077a2.207 2.207 0 0 1-2.19-2.026 2.206 2.206 0 0 1-2.025 2.19 2.209 2.209 0 0 1 2.19 2.027 2.21 2.21 0 0 1 2.026-2.19"/><path d="M112.173 194.393c-6.852-.66-13.348 1.591-16.308 5.705s-4.077 8.009-3.055 12.991 5.796 9.868 8.806 10.775 4.038 1.014 6.84.368c2.405-.873 3.02-1.336 3.95-2.494a5.502 5.502 0 0 0 1.164-3.946 6.465 6.465 0 0 0-2.165-4.255 85.15 85.15 0 0 1-6.667-5.934c-.974-1.23-3.003-3.247-2.753-5.598a7.99 7.99 0 0 1 3.342-5.59 13.898 13.898 0 0 1 6.846-2.022z"/></g>
</svg>
