<svg id="4311f63c-3413-4c41-bc79-a35df2e94b1c" data-name="Layer 1" xmlns="http://www.w3.org/2000/svg" width="4.52514in" height="1.58528in" viewBox="0 0 325.81 114.14">
  <title>sdfsdfsdfgdfgdfArtboard 1</title>
  <path d="M131.61,91.39H0V21.95H149.37Z" style="fill: #ffc620"/>
  <path d="M20.92,59.48V40.07h7.47V59.29c0,5.53,2.77,8.39,7.33,8.39s7.33-2.77,7.33-8.15V40.07h7.47V59.24c0,10.29-5.77,15.34-14.9,15.34C26.5,74.58,20.92,69.48,20.92,59.48Zm37.17-2.33v-.1A17.26539,17.26539,0,0,1,75.8,39.48c6.41,0,10.24,2.14,13.39,5.24L84.43,50.2c-2.62-2.38-5.29-3.83-8.69-3.83-5.73,0-9.85,4.76-9.85,10.58v.1c0,5.82,4.03,10.68,9.85,10.68,3.88,0,6.26-1.55,8.93-3.98l4.76,4.8A17.37164,17.37164,0,0,1,75.5,74.62,17.13159,17.13159,0,0,1,58.09,57.15ZM96.86,40.07h25.87v6.8H104.34V54.1h16.21v6.79H104.34V74.04H96.87V40.07ZM324.31,74.43H301.49a1.5151,1.5151,0,0,1-1.51-1.51V71.1a1.51508,1.51508,0,0,1,1.51-1.51h22.82a1.5151,1.5151,0,0,1,1.51,1.51v1.83A1.513,1.513,0,0,1,324.31,74.43ZM177.27,43.32a15.36892,15.36892,0,0,1,5.66.97,12.72544,12.72544,0,0,1,4.24,2.68,12.44991,12.44991,0,0,1,2.8,4.16,17.27007,17.27007,0,0,1,1.33,6.6v3.06a18.88987,18.88987,0,0,1-1.36,6.57,12.15,12.15,0,0,1-7.01,6.81,16.9982,16.9982,0,0,1-11.32,0,12.72993,12.72993,0,0,1-4.24-2.68,12.42,12.42,0,0,1-2.8-4.13A17.05978,17.05978,0,0,1,163.3,62a37.54938,37.54938,0,0,1,0-5.54,17.27276,17.27276,0,0,1,1.27-5.33,12.44991,12.44991,0,0,1,2.8-4.16,12.73,12.73,0,0,1,4.24-2.68,15.5781,15.5781,0,0,1,5.66-.97Zm8.6,18.39a21.04993,21.04993,0,0,0,.12-2.45,22.81027,22.81027,0,0,0-.12-2.51,12.44006,12.44006,0,0,0-.77-3.3,7.55,7.55,0,0,0-4.24-4.42,10.29424,10.29424,0,0,0-7.2,0,7.45994,7.45994,0,0,0-2.59,1.77,7.91991,7.91991,0,0,0-1.65,2.65,12.83992,12.83992,0,0,0-.77,3.3,22.68234,22.68234,0,0,0-.12,2.51,21.17081,21.17081,0,0,0,.12,2.45,12.43822,12.43822,0,0,0,.77,3.3,7.55,7.55,0,0,0,4.24,4.42,10.29424,10.29424,0,0,0,7.2,0,7.45988,7.45988,0,0,0,2.59-1.77,7.91987,7.91987,0,0,0,1.65-2.65A12.06278,12.06278,0,0,0,185.87,61.71Zm27.35,13.44a11.55053,11.55053,0,0,1-5.84-1.27,11.09,11.09,0,0,1-3.3-2.74V84.17a1.5588,1.5588,0,0,1-.47,1.12,1.54222,1.54222,0,0,1-1.12.47h-2.18a1.54222,1.54222,0,0,1-1.12-.47,1.52,1.52,0,0,1-.47-1.12V45.5a1.60492,1.60492,0,0,1,1.59-1.59h2.18a1.60492,1.60492,0,0,1,1.59,1.59v1.83a10.45009,10.45009,0,0,1,3.36-2.8,11.84947,11.84947,0,0,1,5.78-1.21,13.50214,13.50214,0,0,1,5.16.97,12.075,12.075,0,0,1,4.16,2.8,13.8,13.8,0,0,1,2.83,4.42,17.87,17.87,0,0,1,1.24,5.83,28.4985,28.4985,0,0,1,0,3.84,17.93,17.93,0,0,1-1.24,5.84,13.45016,13.45016,0,0,1-2.83,4.39,12.19,12.19,0,0,1-4.16,2.77A13.5,13.5,0,0,1,213.22,75.15ZM204.09,56.7c-.04.59-.06,1.37-.06,2.33s.02,1.74.06,2.33a9.136,9.136,0,0,0,2.51,6.45,8.3,8.3,0,0,0,6.04,2.27,7.85522,7.85522,0,0,0,6.13-2.48,10.592,10.592,0,0,0,2.48-6.72q.06-1.65,0-3.3a10.53647,10.53647,0,0,0-2.48-6.72,7.85519,7.85519,0,0,0-6.13-2.48,8.376,8.376,0,0,0-6.01,2.24,8.53207,8.53207,0,0,0-2.54,6.08Zm28.46-.41a15.5234,15.5234,0,0,1,1.3-5.07,14.4599,14.4599,0,0,1,2.77-4.13,12.22,12.22,0,0,1,4.1-2.77,13.61068,13.61068,0,0,1,5.33-1,14.79992,14.79992,0,0,1,5.69,1.03,11.7228,11.7228,0,0,1,4.27,2.98,13.2799,13.2799,0,0,1,2.71,4.72,19.10753,19.10753,0,0,1,.94,6.19v1.59a1.54222,1.54222,0,0,1-.47,1.12,1.5,1.5,0,0,1-1.12.47H237.8v.35a8.29931,8.29931,0,0,0,2.45,6.16,8.2,8.2,0,0,0,5.81,2.15,10.1519,10.1519,0,0,0,4.86-.91,10.38006,10.38006,0,0,0,2.62-2.03,3.44918,3.44918,0,0,1,.83-.65,2.43682,2.43682,0,0,1,1.06-.18h1.77a1.7519,1.7519,0,0,1,1.18.47,1.14846,1.14846,0,0,1,.41,1.12,6.32006,6.32006,0,0,1-1,2.33,8.79988,8.79988,0,0,1-2.39,2.36,14.20974,14.20974,0,0,1-3.89,1.83,18.142,18.142,0,0,1-5.45.74,13.01817,13.01817,0,0,1-5.3-1.03,12.79994,12.79994,0,0,1-4.1-2.83,14.16,14.16,0,0,1-2.8-4.24,16.74018,16.74018,0,0,1-1.3-5.33,25.36913,25.36913,0,0,1-.01-5.44Zm5.25.18h16.56v-.18a7.56825,7.56825,0,0,0-2.27-5.75,8.43665,8.43665,0,0,0-6.04-2.15,8.93174,8.93174,0,0,0-3.18.56,7.8,7.8,0,0,0-2.59,1.59,7.32,7.32,0,0,0-1.77,2.51,8.73,8.73,0,0,0-.71,3.24Zm56.23,16.5a1.60492,1.60492,0,0,1-1.59,1.59h-2.18a1.60492,1.60492,0,0,1-1.59-1.59V57.41c0-3.03-.73-5.28-2.18-6.78a9.2225,9.2225,0,0,0-12.05,0q-2.265,2.235-2.27,6.78V72.97a1.54224,1.54224,0,0,1-.47,1.12,1.55881,1.55881,0,0,1-1.12.47H268.4a1.54222,1.54222,0,0,1-1.12-.47,1.5,1.5,0,0,1-.47-1.12V45.5a1.60492,1.60492,0,0,1,1.59-1.59h2.18a1.5588,1.5588,0,0,1,1.12.47,1.54222,1.54222,0,0,1,.47,1.12v1.83a10.99992,10.99992,0,0,1,3.33-2.74,11.6492,11.6492,0,0,1,5.8-1.27,14.25663,14.25663,0,0,1,5.13.91,11.54291,11.54291,0,0,1,4.04,2.59,11.68013,11.68013,0,0,1,2.62,4.16,15.44221,15.44221,0,0,1,.94,5.54ZM163.14,0,134.6,114.14h6.66L169.8,0Z"/>
</svg>
