<svg viewBox="0 0 543.33 184.23" xmlns="http://www.w3.org/2000/svg"><style>.st0{fill:#208749}</style><path class="st0" d="M115.51 2.31h53.64c48.64 0 85.93 21.34 85.93 74.59 0 43.06-30.37 70.36-72.86 70.36h-66.71V2.31zm52.67 101.5h3.27c17.49 0 30.95-8.07 30.95-27.11 0-20.38-11.73-29.03-30.95-29.03h-3.27v56.14z"/><path class="st0" d="M414.15 75.17c0 46.52-35.95 74.4-80.16 74.4-44.22 0-80.17-27.87-80.17-74.4C253.82 29.6 289.95 0 333.98 0s80.17 29.6 80.17 75.17zm-107.28.77c0 16.53 11.15 27.87 27.11 27.87s27.1-11.34 27.1-27.87c0-15.38-10.38-28.26-27.1-28.26s-27.11 12.88-27.11 28.26z"/><path fill="none" stroke="#000" stroke-width="2.146" stroke-linecap="round" stroke-miterlimit="10" d="M1.07 160.05h541.19"/><path d="M13.2 178.81c0 1.44-.55 2.63-1.65 3.57-1.03.87-2.29 1.34-3.78 1.41-1.56.08-2.91-.39-4.04-1.39s-1.69-2.25-1.69-3.75V166.8h1.04v11.75c0 1.29.46 2.33 1.37 3.11.88.76 1.98 1.12 3.3 1.08 1.23-.04 2.26-.41 3.09-1.12.88-.77 1.32-1.78 1.32-3.03V166.8h1.04v12.01zM30.46 184.23L16.54 169.2v14.37h-1.12v-16.98l14.01 14.93v-14.71h1.04v17.42zM34.74 183.56h-1.09v-16.75h1.09v16.75zM49.99 166.81l-6.17 17.39-5.87-17.39h1.09l4.85 14.35 5.03-14.35h1.07zM60.46 167.82h-6.93v6.02h6.62v1.01h-6.62v7.7h6.72v1.01h-7.8v-16.75h8.01v1.01zM70.4 183.56h-1.2l-5.41-7.94h-.55v7.94h-1.08v-16.75h2.6c1.51 0 2.69.34 3.57 1.01.87.67 1.36 1.63 1.46 2.87.01.17.01.34.01.5 0 1.3-.4 2.33-1.21 3.11-.85.82-2.06 1.26-3.64 1.31l5.45 7.95zm-1.73-12.81c-.11-1.02-.55-1.78-1.31-2.31-.61-.42-1.31-.63-2.1-.63h-2.02v6.79h1.88c.98 0 1.81-.29 2.49-.87.73-.64 1.09-1.47 1.09-2.49 0-.15-.01-.32-.03-.49zM82.52 178.73c.04 1.37-.44 2.54-1.44 3.54s-2.19 1.5-3.59 1.52c-1.13.02-2.05-.18-2.76-.6-.8-.47-1.49-1.28-2.09-2.45l-.27-.53.91-.47.23.46c.48.96 1.03 1.64 1.63 2.05.64.42 1.46.6 2.44.54.97-.06 1.82-.41 2.56-1.07s1.16-1.47 1.26-2.45c.01-.12.01-.24.01-.35 0-1.17-.74-2.14-2.23-2.93l-3.84-2.02c-1.21-.64-1.87-1.61-1.96-2.88-.09-1.22.26-2.26 1.03-3.13.77-.86 1.75-1.3 2.93-1.32 1.66-.03 2.96.55 3.91 1.75l.43.54-.72.62-.52-.64c-.74-.9-1.68-1.35-2.82-1.35-.12 0-.25 0-.38.01-.88.07-1.59.45-2.13 1.15-.5.65-.73 1.38-.68 2.17.03.53.24 1.03.64 1.51.3.37.64.65 1.02.84l3.89 1.99c1.66.84 2.51 2.01 2.54 3.5zM98.05 183.56h-1.12l-2.26-5.58h-7.3l-2.26 5.58h-1.12l7.05-17.33 7.01 17.33zM94.3 177l-3.27-8-3.27 8h6.54zM105.44 183.56h-5.26v-16.75h1.09v15.74h4.16v1.01zM126.1 173.69c.09.55.13 1.08.13 1.61 0 2.61-.95 4.7-2.84 6.28-1.59 1.33-3.32 1.99-5.19 1.99h-3.86v-16.75h3.61c2.17 0 4 .64 5.5 1.93 1.46 1.25 2.35 2.9 2.65 4.94zm-1.01.71c-.17-2.19-1.08-3.89-2.72-5.1-1.35-.99-2.87-1.48-4.58-1.48h-2.42v14.73h2.18c1.95 0 3.64-.57 5.07-1.72 1.67-1.36 2.5-3.24 2.5-5.64 0-.25-.01-.52-.03-.79zM136.36 167.82h-6.93v6.02h6.62v1.01h-6.62v7.7h6.72v1.01h-7.8v-16.75h8.01v1.01zM148.15 178.73c.04 1.37-.44 2.54-1.44 3.54s-2.19 1.5-3.59 1.52c-1.13.02-2.05-.18-2.76-.6-.8-.47-1.49-1.28-2.09-2.45l-.27-.53.91-.47.23.46c.48.96 1.03 1.64 1.63 2.05.64.42 1.46.6 2.44.54.97-.06 1.82-.41 2.56-1.07s1.16-1.47 1.26-2.45c.01-.12.01-.24.01-.35 0-1.17-.74-2.14-2.23-2.93l-3.84-2.02c-1.21-.64-1.87-1.61-1.96-2.88-.09-1.22.26-2.26 1.03-3.13.77-.86 1.75-1.3 2.93-1.32 1.66-.03 2.96.55 3.91 1.75l.43.54-.72.62-.52-.64c-.74-.9-1.68-1.35-2.82-1.35-.12 0-.25 0-.38.01-.88.07-1.59.45-2.13 1.15-.5.65-.73 1.38-.68 2.17.03.53.24 1.03.64 1.51.3.37.64.65 1.02.84l3.89 1.99c1.66.84 2.51 2.01 2.54 3.5zM152.33 183.56h-1.09v-16.75h1.09v16.75zM172.11 176.6c0 1.96-.77 3.65-2.3 5.06-1.63 1.51-3.68 2.22-6.15 2.13-2.03-.07-3.85-.87-5.47-2.4-1.71-1.61-2.61-3.53-2.7-5.76-.09-2.33.67-4.39 2.31-6.16 1.63-1.78 3.59-2.71 5.86-2.79 2.93-.11 5.33.95 7.2 3.2l.57.68-.82.67-.71-.83c-1.62-1.91-3.67-2.81-6.15-2.7-2 .09-3.72.93-5.16 2.53s-2.1 3.43-1.99 5.5c.1 1.88.9 3.52 2.37 4.93 1.39 1.34 2.91 2.06 4.55 2.15 2.13.11 3.92-.45 5.37-1.68 1.37-1.17 2.06-2.56 2.06-4.19v-.4h-5.85v-1.01h7.02v1.07zM189.26 184.23l-13.92-15.03v14.37h-1.12v-16.98l14.01 14.93v-14.71h1.04v17.42zM215.45 175.2c0 2.33-.88 4.35-2.63 6.06s-3.83 2.55-6.22 2.53c-2.19-.02-4.12-.85-5.8-2.5-1.72-1.68-2.6-3.66-2.63-5.93-.03-2.29.77-4.31 2.4-6.05s3.58-2.67 5.87-2.78c2.44-.11 4.56.69 6.34 2.42 1.78 1.72 2.67 3.8 2.67 6.25zm-8.9-7.67c-2.06.1-3.81.94-5.27 2.51s-2.14 3.39-2.03 5.44c.09 1.98.88 3.67 2.34 5.09 1.44 1.39 3.11 2.11 5 2.16 2.13.06 3.97-.68 5.51-2.22 1.52-1.51 2.27-3.3 2.27-5.38 0-2.1-.78-3.92-2.33-5.46-1.54-1.53-3.38-2.24-5.49-2.14zM232.6 184.23l-13.92-15.03v14.37h-1.12v-16.98l14.01 14.93v-14.71h1.04v17.42zM240.48 183.56h-5.26v-16.75h1.09v15.74h4.16v1.01zM244.3 183.56h-1.09v-16.75h1.09v16.75zM262.63 184.23l-13.92-15.03v14.37h-1.12v-16.98l14.01 14.93v-14.71h1.04v17.42zM273.26 167.82h-6.93v6.02h6.62v1.01h-6.62v7.7h6.72v1.01h-7.8v-16.75h8.01v1.01zM290.65 182.4l-.65.46c-.88.61-1.98.9-3.28.89-1.38-.02-2.55-.54-3.51-1.55s-1.45-2.23-1.49-3.64c-.05-1.49.44-2.78 1.45-3.88s2.26-1.65 3.74-1.65c1.21 0 2.3.32 3.25.95l.43.28v1.34l-.7-.61c-.78-.68-1.8-1.02-3.07-1.01-1.17.01-2.16.47-2.95 1.37-.79.91-1.17 1.96-1.14 3.18.03 1.14.42 2.11 1.17 2.92s1.69 1.26 2.81 1.34c1.24.09 2.38-.32 3.42-1.25l.53-.47v1.33zM303.35 178.36c0 1.46-.45 2.69-1.35 3.71-1 1.13-2.36 1.69-4.06 1.69-1.71 0-3.07-.57-4.08-1.72-.91-1.03-1.35-2.29-1.34-3.77.02-1.45.48-2.68 1.38-3.68.99-1.11 2.34-1.66 4.04-1.66 1.71 0 3.06.56 4.06 1.69.9 1.03 1.35 2.27 1.35 3.74zm-.95-.01c.01-1.2-.35-2.22-1.09-3.06-.82-.93-1.94-1.39-3.34-1.39-1.37 0-2.47.44-3.28 1.33-.73.79-1.11 1.78-1.15 2.95-.04 1.22.32 2.27 1.07 3.13.82.96 1.95 1.43 3.37 1.43 1.39 0 2.5-.46 3.31-1.38.73-.81 1.1-1.81 1.11-3.01zM313.02 183.56h-.98v-6.17c0-1.34-.2-2.27-.61-2.77-.37-.45-1-.66-1.9-.65-.79.01-1.49.4-2.07 1.17-.59.77-.88 1.71-.88 2.82v5.6h-1.01v-10.32h1.01v1.59l.46-.6c.2-.26.53-.52.98-.75.58-.3 1.16-.46 1.75-.47 2.18-.02 3.27 1.24 3.27 3.78v6.77zM319.13 174.16h-1.82v9.41h-1.04v-9.41h-1.07v-.91h1.15v-3.68h.98v3.68h1.79v.91zM331 178.55h-8.85v.28c0 1.19.41 2.17 1.24 2.95.76.72 1.64 1.09 2.66 1.11 1.51.03 2.66-.56 3.42-1.77l.37-.58.9.5-.5.72c-.93 1.34-2.34 2.02-4.23 2.04-1.54.01-2.76-.53-3.65-1.62-.85-1.05-1.25-2.42-1.19-4.12.05-1.37.55-2.53 1.5-3.48s2.11-1.43 3.47-1.43c1.37 0 2.51.45 3.4 1.34s1.38 2.05 1.44 3.48l.02.58zm-1.02-.94l-.06-.36c-.15-.97-.62-1.75-1.39-2.34-.78-.6-1.65-.88-2.62-.85-.86.03-1.62.32-2.3.88-.73.6-1.2 1.37-1.4 2.33l-.07.34h7.84zM340.52 183.56h-.98v-6.17c0-1.34-.2-2.27-.61-2.77-.37-.45-1-.66-1.9-.65-.79.01-1.49.4-2.07 1.17-.59.77-.88 1.71-.88 2.82v5.6h-1.01v-10.32h1.01v1.59l.46-.6c.2-.26.53-.52.98-.75.58-.3 1.16-.46 1.75-.47 2.18-.02 3.27 1.24 3.27 3.78v6.77zM346.63 174.16h-1.82v9.41h-1.04v-9.41h-1.07v-.91h1.15v-3.68h.98v3.68h1.79v.91zM357.67 183.56h-1.09v-16.75h1.09v16.75zM376 184.23l-13.92-15.03v14.37h-1.12v-16.98l14.01 14.93v-14.71H376v17.42zM388.31 178.73c.04 1.37-.44 2.54-1.44 3.54s-2.2 1.5-3.59 1.52c-1.13.02-2.05-.18-2.76-.6-.8-.47-1.49-1.28-2.09-2.45l-.27-.53.91-.47.23.46c.48.96 1.03 1.64 1.63 2.05.64.42 1.46.6 2.44.54.97-.06 1.82-.41 2.56-1.07s1.16-1.47 1.26-2.45c.01-.12.01-.24.01-.35 0-1.17-.74-2.14-2.23-2.93l-3.84-2.02c-1.21-.64-1.87-1.61-1.96-2.88-.08-1.22.26-2.26 1.03-3.13.77-.86 1.75-1.3 2.93-1.32 1.66-.03 2.96.55 3.91 1.75l.43.54-.72.62-.52-.64c-.74-.9-1.68-1.35-2.82-1.35-.12 0-.25 0-.38.01-.88.07-1.59.45-2.13 1.15-.5.65-.73 1.38-.68 2.17.03.53.24 1.03.64 1.51.3.37.64.65 1.02.84l3.89 1.99c1.65.84 2.5 2.01 2.54 3.5zM398.81 170.69c.02.22.03.43.03.62 0 1.36-.42 2.42-1.25 3.17-.88.78-2.17 1.17-3.87 1.17h-1.84v7.91h-1.04v-16.75h3.35c1.31 0 2.38.35 3.21 1.04s1.3 1.64 1.41 2.84zm-1.04.09c-.1-1.01-.52-1.78-1.25-2.29-.64-.45-1.45-.67-2.45-.67h-2.19v6.78h2.52c.89 0 1.67-.29 2.32-.87.72-.64 1.08-1.47 1.08-2.51 0-.14-.01-.29-.03-.44zM408.88 167.82h-6.93v6.02h6.62v1.01h-6.62v7.7h6.72v1.01h-7.8v-16.75h8.01v1.01zM424.62 181.63l-.72.53c-1.54 1.12-3.32 1.65-5.33 1.61-2.02-.05-3.85-.86-5.49-2.44-1.71-1.64-2.6-3.58-2.69-5.81-.08-2.33.69-4.38 2.32-6.15s3.58-2.7 5.85-2.8c2.22-.08 4.08.51 5.6 1.79l.46.38v1.42l-.77-.74c-.61-.59-1.39-1.05-2.34-1.39-.96-.34-1.9-.49-2.84-.45-2 .08-3.71.92-5.14 2.5-1.46 1.6-2.13 3.44-2.02 5.5.09 1.88.88 3.53 2.34 4.96 1.38 1.35 2.89 2.07 4.53 2.16.2.01.39.01.57.01 1.95 0 3.62-.63 5-1.89l.67-.61v1.42zM436.49 167.82h-4.39v15.74h-1.08v-15.74h-4.31v-1.01h9.78v1.01zM440.68 183.56h-1.09v-16.75h1.09v16.75zM461.23 175.2c0 2.33-.88 4.35-2.63 6.06s-3.83 2.55-6.22 2.53c-2.19-.02-4.12-.85-5.8-2.5-1.72-1.68-2.6-3.66-2.63-5.93-.03-2.29.77-4.31 2.4-6.05s3.58-2.67 5.87-2.78c2.44-.11 4.56.69 6.34 2.42 1.78 1.72 2.67 3.8 2.67 6.25zm-8.9-7.67c-2.06.1-3.81.94-5.27 2.51s-2.14 3.39-2.03 5.44c.09 1.98.88 3.67 2.34 5.09 1.44 1.39 3.11 2.11 5 2.16 2.13.06 3.97-.68 5.51-2.22 1.52-1.51 2.27-3.3 2.27-5.38 0-2.1-.78-3.92-2.33-5.46-1.54-1.53-3.38-2.24-5.49-2.14zM478.38 184.23l-13.92-15.03v14.37h-1.12v-16.98l14.01 14.93v-14.71h1.04v17.42zM497.05 167.82h-4.39v15.74h-1.08v-15.74h-4.31v-1.01h9.78v1.01zM514.01 175.2c0 2.33-.88 4.35-2.63 6.06s-3.83 2.55-6.22 2.53c-2.19-.02-4.12-.85-5.8-2.5-1.72-1.68-2.6-3.66-2.63-5.93-.03-2.29.77-4.31 2.4-6.05s3.58-2.67 5.87-2.78c2.44-.11 4.56.69 6.34 2.42 1.78 1.72 2.67 3.8 2.67 6.25zm-8.89-7.67c-2.06.1-3.81.94-5.27 2.51s-2.14 3.39-2.03 5.44c.09 1.98.88 3.67 2.34 5.09 1.44 1.39 3.11 2.11 5 2.16 2.13.06 3.97-.68 5.51-2.22 1.52-1.51 2.27-3.3 2.27-5.38 0-2.1-.78-3.92-2.33-5.46-1.55-1.53-3.38-2.24-5.49-2.14zM533.38 175.2c0 2.33-.88 4.35-2.63 6.06s-3.83 2.55-6.22 2.53c-2.19-.02-4.12-.85-5.8-2.5-1.72-1.68-2.6-3.66-2.63-5.93-.03-2.29.77-4.31 2.4-6.05s3.58-2.67 5.87-2.78c2.44-.11 4.56.69 6.34 2.42 1.78 1.72 2.67 3.8 2.67 6.25zm-8.9-7.67c-2.06.1-3.81.94-5.27 2.51s-2.14 3.39-2.03 5.44c.09 1.98.88 3.67 2.34 5.09 1.44 1.39 3.11 2.11 5 2.16 2.13.06 3.97-.68 5.51-2.22 1.52-1.51 2.27-3.3 2.27-5.38 0-2.1-.78-3.92-2.33-5.46-1.54-1.53-3.37-2.24-5.49-2.14zM541.21 183.56h-5.26v-16.75h1.09v15.74h4.16v1.01zM18.43 1.84V85.9c0 23.24 6.99 44.77 34.38 44.77s34.38-21.53 34.38-44.77V1.84h17.76v90.11c0 31.36-19.46 55.35-52.14 55.35S.67 123.31.67 91.95V1.84h17.76zM442.17 146.91h-18.03V2.26h18.03v144.65zM508.16 146.91h-18.03V18.76h-34.34V2.26h86.72v16.5h-34.34v128.15z"/></svg>
